<?xml version="1.0" encoding="UTF-8"?>
<svg version="1.1" xmlns="http://www.w3.org/2000/svg" width="500" height="500">
<path d="M0 0 C6.24690196 5.15231206 11.91031402 10.78238632 17.578125 16.55078125 C18.58741141 17.57013616 19.5971751 18.58901874 20.60742188 19.60742188 C23.04065308 22.06231714 25.46746643 24.52343807 27.890625 26.98828125 C31.5941805 25.44676983 33.86710014 23.20176313 36.63671875 20.33203125 C37.55018066 19.39617187 38.46364258 18.4603125 39.40478516 17.49609375 C39.88232239 17.00399414 40.35985962 16.51189453 40.85186768 16.00488281 C59.89482647 -3.55849587 80.01556466 -18.49888775 108.44140625 -19.3125 C110.69523361 -19.33175785 112.94924273 -19.33532479 115.203125 -19.32421875 C116.38865967 -19.3193042 117.57419434 -19.31438965 118.7956543 -19.30932617 C127.52460941 -19.19271685 135.47927142 -18.49276549 143.890625 -16.01171875 C145.59605469 -15.53605469 145.59605469 -15.53605469 147.3359375 -15.05078125 C167.14244881 -8.80308976 184.72850995 5.36924205 196.890625 21.98828125 C197.44105469 22.7359375 197.99148438 23.48359375 198.55859375 24.25390625 C208.17950487 38.0051314 214.58737217 54.11442714 214.890625 70.98828125 C214.92929687 72.14714844 214.96796875 73.30601562 215.0078125 74.5 C215.43864743 97.40605707 210.6039984 117.88696003 195.890625 135.98828125 C195.29314453 136.73489014 195.29314453 136.73489014 194.68359375 137.49658203 C193.34420219 139.16736435 191.9943609 140.82910566 190.640625 142.48828125 C190.20395508 143.02960693 189.76728516 143.57093262 189.31738281 144.12866211 C188.22029146 145.45392285 187.06001124 146.72635365 185.890625 147.98828125 C185.230625 147.98828125 184.570625 147.98828125 183.890625 147.98828125 C183.6225 148.62765625 183.354375 149.26703125 183.078125 149.92578125 C181.890625 151.98828125 181.890625 151.98828125 178.890625 152.98828125 C178.560625 153.64828125 178.230625 154.30828125 177.890625 154.98828125 C177.560625 155.64828125 177.230625 156.30828125 176.890625 156.98828125 C175.900625 157.31828125 174.910625 157.64828125 173.890625 157.98828125 C173.560625 158.64828125 173.230625 159.30828125 172.890625 159.98828125 C172.560625 160.64828125 172.230625 161.30828125 171.890625 161.98828125 C170.900625 162.31828125 169.910625 162.64828125 168.890625 162.98828125 C168.560625 163.64828125 168.230625 164.30828125 167.890625 164.98828125 C167.560625 165.64828125 167.230625 166.30828125 166.890625 166.98828125 C165.900625 167.31828125 164.910625 167.64828125 163.890625 167.98828125 C163.560625 168.64828125 163.230625 169.30828125 162.890625 169.98828125 C162.560625 170.64828125 162.230625 171.30828125 161.890625 171.98828125 C160.900625 172.31828125 159.910625 172.64828125 158.890625 172.98828125 C158.560625 173.64828125 158.230625 174.30828125 157.890625 174.98828125 C157.560625 175.64828125 157.230625 176.30828125 156.890625 176.98828125 C155.900625 177.31828125 154.910625 177.64828125 153.890625 177.98828125 C153.560625 178.64828125 153.230625 179.30828125 152.890625 179.98828125 C152.560625 180.64828125 152.230625 181.30828125 151.890625 181.98828125 C150.900625 182.31828125 149.910625 182.64828125 148.890625 182.98828125 C148.560625 183.64828125 148.230625 184.30828125 147.890625 184.98828125 C147.560625 185.64828125 147.230625 186.30828125 146.890625 186.98828125 C145.900625 187.31828125 144.910625 187.64828125 143.890625 187.98828125 C143.560625 188.64828125 143.230625 189.30828125 142.890625 189.98828125 C142.560625 190.64828125 142.230625 191.30828125 141.890625 191.98828125 C140.900625 192.31828125 139.910625 192.64828125 138.890625 192.98828125 C138.560625 193.64828125 138.230625 194.30828125 137.890625 194.98828125 C137.560625 195.64828125 137.230625 196.30828125 136.890625 196.98828125 C135.900625 197.31828125 134.910625 197.64828125 133.890625 197.98828125 C133.560625 198.64828125 133.230625 199.30828125 132.890625 199.98828125 C132.560625 200.64828125 132.230625 201.30828125 131.890625 201.98828125 C130.900625 202.31828125 129.910625 202.64828125 128.890625 202.98828125 C128.560625 203.64828125 128.230625 204.30828125 127.890625 204.98828125 C127.560625 205.64828125 127.230625 206.30828125 126.890625 206.98828125 C125.900625 207.31828125 124.910625 207.64828125 123.890625 207.98828125 C123.560625 208.64828125 123.230625 209.30828125 122.890625 209.98828125 C122.560625 210.64828125 122.230625 211.30828125 121.890625 211.98828125 C120.900625 212.31828125 119.910625 212.64828125 118.890625 212.98828125 C118.560625 213.64828125 118.230625 214.30828125 117.890625 214.98828125 C117.560625 215.64828125 117.230625 216.30828125 116.890625 216.98828125 C115.900625 217.31828125 114.910625 217.64828125 113.890625 217.98828125 C113.560625 218.64828125 113.230625 219.30828125 112.890625 219.98828125 C112.560625 220.64828125 112.230625 221.30828125 111.890625 221.98828125 C110.900625 222.31828125 109.910625 222.64828125 108.890625 222.98828125 C108.560625 223.64828125 108.230625 224.30828125 107.890625 224.98828125 C107.560625 225.64828125 107.230625 226.30828125 106.890625 226.98828125 C105.900625 227.31828125 104.910625 227.64828125 103.890625 227.98828125 C103.560625 228.64828125 103.230625 229.30828125 102.890625 229.98828125 C102.560625 230.64828125 102.230625 231.30828125 101.890625 231.98828125 C100.900625 232.31828125 99.910625 232.64828125 98.890625 232.98828125 C98.560625 233.64828125 98.230625 234.30828125 97.890625 234.98828125 C97.560625 235.64828125 97.230625 236.30828125 96.890625 236.98828125 C95.900625 237.31828125 94.910625 237.64828125 93.890625 237.98828125 C93.560625 238.64828125 93.230625 239.30828125 92.890625 239.98828125 C92.560625 240.64828125 92.230625 241.30828125 91.890625 241.98828125 C90.900625 242.31828125 89.910625 242.64828125 88.890625 242.98828125 C88.560625 243.64828125 88.230625 244.30828125 87.890625 244.98828125 C87.560625 245.64828125 87.230625 246.30828125 86.890625 246.98828125 C85.900625 247.31828125 84.910625 247.64828125 83.890625 247.98828125 C83.560625 248.64828125 83.230625 249.30828125 82.890625 249.98828125 C82.560625 250.64828125 82.230625 251.30828125 81.890625 251.98828125 C80.900625 252.31828125 79.910625 252.64828125 78.890625 252.98828125 C78.560625 253.64828125 78.230625 254.30828125 77.890625 254.98828125 C77.560625 255.64828125 77.230625 256.30828125 76.890625 256.98828125 C75.900625 257.31828125 74.910625 257.64828125 73.890625 257.98828125 C73.560625 258.64828125 73.230625 259.30828125 72.890625 259.98828125 C72.560625 260.64828125 72.230625 261.30828125 71.890625 261.98828125 C70.900625 262.31828125 69.910625 262.64828125 68.890625 262.98828125 C68.560625 263.64828125 68.230625 264.30828125 67.890625 264.98828125 C67.560625 265.64828125 67.230625 266.30828125 66.890625 266.98828125 C65.900625 267.31828125 64.910625 267.64828125 63.890625 267.98828125 C63.560625 268.64828125 63.230625 269.30828125 62.890625 269.98828125 C62.560625 270.64828125 62.230625 271.30828125 61.890625 271.98828125 C60.900625 272.31828125 59.910625 272.64828125 58.890625 272.98828125 C58.560625 273.64828125 58.230625 274.30828125 57.890625 274.98828125 C57.560625 275.64828125 57.230625 276.30828125 56.890625 276.98828125 C55.900625 277.31828125 54.910625 277.64828125 53.890625 277.98828125 C53.560625 278.64828125 53.230625 279.30828125 52.890625 279.98828125 C52.560625 280.64828125 52.230625 281.30828125 51.890625 281.98828125 C50.900625 282.31828125 49.910625 282.64828125 48.890625 282.98828125 C48.560625 283.64828125 48.230625 284.30828125 47.890625 284.98828125 C47.560625 285.64828125 47.230625 286.30828125 46.890625 286.98828125 C45.900625 287.31828125 44.910625 287.64828125 43.890625 287.98828125 C43.560625 288.64828125 43.230625 289.30828125 42.890625 289.98828125 C42.560625 290.64828125 42.230625 291.30828125 41.890625 291.98828125 C40.900625 292.31828125 39.910625 292.64828125 38.890625 292.98828125 C38.560625 293.64828125 38.230625 294.30828125 37.890625 294.98828125 C37.560625 295.64828125 37.230625 296.30828125 36.890625 296.98828125 C35.900625 297.31828125 34.910625 297.64828125 33.890625 297.98828125 C33.58125 298.64828125 33.271875 299.30828125 32.953125 299.98828125 C31.890625 301.98828125 31.890625 301.98828125 30.015625 302.92578125 C27.890625 302.98828125 27.890625 302.98828125 25.640625 301.67578125 C25.063125 301.11890625 24.485625 300.56203125 23.890625 299.98828125 C23.890625 299.32828125 23.890625 298.66828125 23.890625 297.98828125 C23.25125 297.72015625 22.611875 297.45203125 21.953125 297.17578125 C19.890625 295.98828125 19.890625 295.98828125 18.890625 292.98828125 C18.230625 292.65828125 17.570625 292.32828125 16.890625 291.98828125 C14.890625 290.98828125 14.890625 290.98828125 13.890625 287.98828125 C13.230625 287.65828125 12.570625 287.32828125 11.890625 286.98828125 C9.890625 285.98828125 9.890625 285.98828125 8.890625 282.98828125 C8.230625 282.65828125 7.570625 282.32828125 6.890625 281.98828125 C4.890625 280.98828125 4.890625 280.98828125 3.890625 277.98828125 C3.230625 277.65828125 2.570625 277.32828125 1.890625 276.98828125 C-0.109375 275.98828125 -0.109375 275.98828125 -1.109375 272.98828125 C-1.769375 272.65828125 -2.429375 272.32828125 -3.109375 271.98828125 C-5.109375 270.98828125 -5.109375 270.98828125 -6.109375 267.98828125 C-6.769375 267.65828125 -7.429375 267.32828125 -8.109375 266.98828125 C-10.109375 265.98828125 -10.109375 265.98828125 -11.109375 262.98828125 C-11.769375 262.65828125 -12.429375 262.32828125 -13.109375 261.98828125 C-15.109375 260.98828125 -15.109375 260.98828125 -16.109375 257.98828125 C-16.769375 257.65828125 -17.429375 257.32828125 -18.109375 256.98828125 C-20.109375 255.98828125 -20.109375 255.98828125 -21.109375 252.98828125 C-21.769375 252.65828125 -22.429375 252.32828125 -23.109375 251.98828125 C-25.109375 250.98828125 -25.109375 250.98828125 -26.109375 247.98828125 C-26.769375 247.65828125 -27.429375 247.32828125 -28.109375 246.98828125 C-30.109375 245.98828125 -30.109375 245.98828125 -31.109375 242.98828125 C-31.769375 242.65828125 -32.429375 242.32828125 -33.109375 241.98828125 C-35.109375 240.98828125 -35.109375 240.98828125 -36.109375 237.98828125 C-36.769375 237.65828125 -37.429375 237.32828125 -38.109375 236.98828125 C-40.109375 235.98828125 -40.109375 235.98828125 -41.109375 232.98828125 C-41.769375 232.65828125 -42.429375 232.32828125 -43.109375 231.98828125 C-45.109375 230.98828125 -45.109375 230.98828125 -46.109375 227.98828125 C-46.769375 227.65828125 -47.429375 227.32828125 -48.109375 226.98828125 C-50.109375 225.98828125 -50.109375 225.98828125 -51.109375 222.98828125 C-51.769375 222.65828125 -52.429375 222.32828125 -53.109375 221.98828125 C-55.109375 220.98828125 -55.109375 220.98828125 -56.109375 217.98828125 C-56.769375 217.65828125 -57.429375 217.32828125 -58.109375 216.98828125 C-60.109375 215.98828125 -60.109375 215.98828125 -61.109375 212.98828125 C-61.769375 212.65828125 -62.429375 212.32828125 -63.109375 211.98828125 C-65.109375 210.98828125 -65.109375 210.98828125 -66.109375 207.98828125 C-66.769375 207.65828125 -67.429375 207.32828125 -68.109375 206.98828125 C-70.109375 205.98828125 -70.109375 205.98828125 -71.109375 202.98828125 C-71.769375 202.65828125 -72.429375 202.32828125 -73.109375 201.98828125 C-75.109375 200.98828125 -75.109375 200.98828125 -76.109375 197.98828125 C-76.769375 197.65828125 -77.429375 197.32828125 -78.109375 196.98828125 C-80.109375 195.98828125 -80.109375 195.98828125 -81.109375 192.98828125 C-81.769375 192.65828125 -82.429375 192.32828125 -83.109375 191.98828125 C-85.109375 190.98828125 -85.109375 190.98828125 -86.109375 187.98828125 C-86.769375 187.65828125 -87.429375 187.32828125 -88.109375 186.98828125 C-90.109375 185.98828125 -90.109375 185.98828125 -91.109375 182.98828125 C-91.769375 182.65828125 -92.429375 182.32828125 -93.109375 181.98828125 C-95.109375 180.98828125 -95.109375 180.98828125 -96.109375 177.98828125 C-96.769375 177.65828125 -97.429375 177.32828125 -98.109375 176.98828125 C-100.109375 175.98828125 -100.109375 175.98828125 -101.109375 172.98828125 C-101.769375 172.65828125 -102.429375 172.32828125 -103.109375 171.98828125 C-105.109375 170.98828125 -105.109375 170.98828125 -106.109375 167.98828125 C-106.769375 167.65828125 -107.429375 167.32828125 -108.109375 166.98828125 C-110.109375 165.98828125 -110.109375 165.98828125 -111.109375 162.98828125 C-111.769375 162.65828125 -112.429375 162.32828125 -113.109375 161.98828125 C-115.109375 160.98828125 -115.109375 160.98828125 -116.109375 157.98828125 C-116.769375 157.65828125 -117.429375 157.32828125 -118.109375 156.98828125 C-120.109375 155.98828125 -120.109375 155.98828125 -121.109375 152.98828125 C-121.769375 152.65828125 -122.429375 152.32828125 -123.109375 151.98828125 C-125.109375 150.98828125 -125.109375 150.98828125 -126.109375 147.98828125 C-126.96015625 147.59189453 -126.96015625 147.59189453 -127.828125 147.1875 C-131.16744789 145.43206827 -133.24241589 142.66112556 -135.609375 139.80078125 C-136.31900391 138.97223633 -136.31900391 138.97223633 -137.04296875 138.12695312 C-140.26082228 134.28959594 -142.73346453 130.39708326 -145.109375 125.98828125 C-145.61339844 125.08207031 -146.11742187 124.17585937 -146.63671875 123.2421875 C-149.60836887 117.57053396 -151.9859149 111.89085478 -153.921875 105.80078125 C-154.12868896 105.16019775 -154.33550293 104.51961426 -154.54858398 103.85961914 C-161.42106513 81.18939422 -157.63976371 54.08004247 -146.859375 33.36328125 C-138.08973338 18.72859268 -127.68135039 6.16493664 -113.109375 -3.01171875 C-111.85640625 -3.81222656 -111.85640625 -3.81222656 -110.578125 -4.62890625 C-105.26536423 -7.92478562 -99.90006319 -10.6659993 -94.109375 -13.01171875 C-92.96855469 -13.52025391 -92.96855469 -13.52025391 -91.8046875 -14.0390625 C-61.35181498 -26.60917343 -25.23212261 -20.35025541 0 0 Z " fill="#D5171E" transform="translate(221.109375,117.01171875)"/>
<path d="M0 0 C5.39584157 4.547587 10.49780715 9.40096625 15.5625 14.3125 C16.77305054 15.45875854 16.77305054 15.45875854 18.00805664 16.62817383 C24.32612923 22.87321293 24.32612923 22.87321293 24.9609375 27.2421875 C24.95320312 28.21414062 24.94546875 29.18609375 24.9375 30.1875 C25.5975 30.1875 26.2575 30.1875 26.9375 30.1875 C26.9375 31.1775 26.9375 32.1675 26.9375 33.1875 C26.2775 33.1875 25.6175 33.1875 24.9375 33.1875 C24.9375 33.8475 24.9375 34.5075 24.9375 35.1875 C23.53396058 36.31717807 22.12919824 37.44536602 20.71875 38.56640625 C17.94782754 41.08818875 15.84182629 44.06949145 13.58984375 47.05078125 C9.77967695 51.97787637 4.97144598 56.49763028 -0.0625 60.1875 C-0.7225 60.1875 -1.3825 60.1875 -2.0625 60.1875 C-2.3925 61.5075 -2.7225 62.8275 -3.0625 64.1875 C-3.68125 64.27 -4.3 64.3525 -4.9375 64.4375 C-7.20203908 64.96010299 -7.20203908 64.96010299 -7.9375 66.9375 C-9.5724511 70.2074022 -12.25279078 71.90461126 -15.0625 74.1875 C-15.7225 75.1775 -16.3825 76.1675 -17.0625 77.1875 C-17.7225 77.1875 -18.3825 77.1875 -19.0625 77.1875 C-19.26875 77.93 -19.475 78.6725 -19.6875 79.4375 C-21.4750459 83.01259179 -23.69911641 84.10220217 -27.0625 86.1875 C-29.82458623 88.64268776 -31.60490963 90.78645581 -33.0625 94.1875 C-33.7225 94.1875 -34.3825 94.1875 -35.0625 94.1875 C-35.35125 94.785625 -35.64 95.38375 -35.9375 96 C-37.0625 98.1875 -37.0625 98.1875 -39.0625 101.1875 C-38.7325 101.8475 -38.4025 102.5075 -38.0625 103.1875 C-45.64966216 109.86959459 -45.64966216 109.86959459 -49.3125 112.875 C-51.98997937 115.04638172 -51.98997937 115.04638172 -53.9375 117.125 C-56.48498953 119.59756337 -59.26402206 121.57936203 -62.16015625 123.625 C-64.1584656 125.13198059 -64.1584656 125.13198059 -65.59765625 127.3046875 C-67.84191448 130.18930742 -70.59219998 130.34984137 -74.0625 131.1875 C-77.12019188 132.27467933 -78.76129802 132.88629802 -81.0625 135.1875 C-83.39541811 135.23151732 -85.72950175 135.22704234 -88.0625 135.1875 C-88.866875 135.3525 -89.67125 135.5175 -90.5 135.6875 C-96.08882141 136.77800174 -101.52130202 136.2957396 -107.0625 135.1875 C-107.0625 135.8475 -107.0625 136.5075 -107.0625 137.1875 C-107.7225 137.1875 -108.3825 137.1875 -109.0625 137.1875 C-109.0625 136.5275 -109.0625 135.8675 -109.0625 135.1875 C-109.98869141 135.05794922 -109.98869141 135.05794922 -110.93359375 134.92578125 C-116.66219405 133.9753742 -121.06722887 132.41262899 -126.03125 129.40625 C-128.20931899 128.04247187 -128.20931899 128.04247187 -131.3125 126.75 C-134.86021202 124.73425453 -136.61226837 122.43045362 -139.0625 119.1875 C-139.7225 119.5175 -140.3825 119.8475 -141.0625 120.1875 C-141.0625 122.1675 -141.0625 124.1475 -141.0625 126.1875 C-143.40625 125.97265625 -143.40625 125.97265625 -146.0625 125.1875 C-150.0010786 119.75007343 -151.75347024 112.42643272 -153.8125 106.0625 C-154.02326172 105.41853271 -154.23402344 104.77456543 -154.45117188 104.11108398 C-161.4332495 81.47370034 -157.58533377 54.26474283 -146.8125 33.5625 C-138.04285838 18.92781143 -127.63447539 6.36415539 -113.0625 -2.8125 C-111.80953125 -3.61300781 -111.80953125 -3.61300781 -110.53125 -4.4296875 C-105.21848923 -7.72556687 -99.85318819 -10.46678055 -94.0625 -12.8125 C-92.92167969 -13.32103516 -92.92167969 -13.32103516 -91.7578125 -13.83984375 C-61.14828995 -26.47461552 -25.58316435 -19.92834906 0 0 Z " fill="#B71218" transform="translate(221.0625,116.8125)"/>
<path d="M0 0 C1.18553467 0.00491455 2.37106934 0.0098291 3.5925293 0.01489258 C12.32148441 0.1315019 20.27614642 0.83145326 28.6875 3.3125 C29.82445312 3.62960938 30.96140625 3.94671875 32.1328125 4.2734375 C44.29371888 8.1094281 55.0824474 15.01183726 64.6875 23.3125 C64.0275 23.6425 63.3675 23.9725 62.6875 24.3125 C61.2025 23.8175 61.2025 23.8175 59.6875 23.3125 C59.1925 22.3225 59.1925 22.3225 58.6875 21.3125 C56.36593403 20.90520772 54.0306213 20.56811323 51.6875 20.3125 C51.1925 18.8275 51.1925 18.8275 50.6875 17.3125 C49.6975 17.3125 48.7075 17.3125 47.6875 17.3125 C46.35416667 15.97916667 45.02083333 14.64583333 43.6875 13.3125 C39.49776706 10.87660876 35.1467011 9.39526617 30.54296875 7.9609375 C28.6875 7.3125 28.6875 7.3125 27.6875 6.3125 C19.3880285 3.65406594 10.638003 4.03877806 2.03442383 4.10668945 C-0.40098304 4.12519746 -2.8360138 4.12719694 -5.27148438 4.12695312 C-6.81771165 4.13186032 -8.36393635 4.13768512 -9.91015625 4.14453125 C-10.6392067 4.14564407 -11.36825714 4.1467569 -12.11940002 4.14790344 C-15.50280282 3.88262701 -15.50280282 3.88262701 -18.3125 5.3125 C-20.99794346 5.87524765 -23.67503387 6.39311023 -26.375 6.875 C-27.51291992 7.08286133 -27.51291992 7.08286133 -28.67382812 7.29492188 C-30.55274975 7.63761827 -32.43254701 7.9755073 -34.3125 8.3125 C-34.3125 8.9725 -34.3125 9.6325 -34.3125 10.3125 C-36.16293427 11.51070784 -38.07040262 12.62144982 -40 13.6875 C-43.21199298 15.46801869 -46.10902015 17.14353905 -48.9375 19.4921875 C-52.42399631 22.16440342 -55.00218943 22.02027555 -59.3125 22.3125 C-50.05597468 9.70372837 -31.56549195 3.07518305 -16.61279297 0.71386719 C-11.07385231 0.04024547 -5.574317 -0.02746753 0 0 Z " fill="#C84550" transform="translate(336.3125,97.6875)"/>
<path d="M0 0 C0.495 0.99 0.495 0.99 1 2 C-2.69037278 3.37095624 -4.70883835 2.60010967 -8.25 1.0625 C-9.14203125 0.68222656 -10.0340625 0.30195312 -10.953125 -0.08984375 C-11.62859375 -0.39019531 -12.3040625 -0.69054687 -13 -1 C-13 -1.66 -13 -2.32 -13 -3 C-13.75023437 -2.98839844 -14.50046875 -2.97679688 -15.2734375 -2.96484375 C-20.20022079 -2.92140863 -25.03984721 -2.92712793 -29.9375 -3.5 C-38.39746475 -4.44151221 -46.92234391 -5.00563948 -55 -2 C-55.495 -2.495 -55.495 -2.495 -56 -3 C-58.88234418 -2.67907302 -61.70356683 -2.28106624 -64.5625 -1.8125 C-65.34947266 -1.69841797 -66.13644531 -1.58433594 -66.94726562 -1.46679688 C-74.26470985 -0.27839085 -80.74962662 1.98162839 -85.75 7.6875 C-88.05922546 10.30499585 -89.49182468 11.52384048 -93 12 C-94.67542976 11.71395102 -96.34385343 11.38218767 -98 11 C-98.99 11 -99.98 11 -101 11 C-73.62376539 -9.21181576 -31.08013216 -17.98732058 0 0 Z " fill="#CB4851" transform="translate(205,106)"/>
<path d="M0 0 C0 3.51716303 -0.82445585 4.37121748 -3 7 C-2.505 7.99 -2.505 7.99 -2 9 C-9.58716216 15.68209459 -9.58716216 15.68209459 -13.25 18.6875 C-15.92747937 20.85888172 -15.92747937 20.85888172 -17.875 22.9375 C-20.42248953 25.41006337 -23.20152206 27.39186203 -26.09765625 29.4375 C-28.0959656 30.94448059 -28.0959656 30.94448059 -29.53515625 33.1171875 C-31.77941448 36.00180742 -34.52969998 36.16234137 -38 37 C-41.05769188 38.08717933 -42.69879802 38.69879802 -45 41 C-47.33291811 41.04401732 -49.66700175 41.03954234 -52 41 C-53.2065625 41.2475 -53.2065625 41.2475 -54.4375 41.5 C-60.02632141 42.59050174 -65.45880202 42.1082396 -71 41 C-71 41.66 -71 42.32 -71 43 C-71.66 43 -72.32 43 -73 43 C-73 42.34 -73 41.68 -73 41 C-73.61746094 40.91363281 -74.23492187 40.82726562 -74.87109375 40.73828125 C-80.60169352 39.78754248 -85.00820483 38.22492414 -89.97265625 35.21484375 C-92.13459547 33.85863378 -92.13459547 33.85863378 -95.1875 32.625 C-98.94072409 30.45647053 -101.56761018 27.57958077 -104 24 C-104 23.34 -104 22.68 -104 22 C-100.89526709 23.41314076 -98.49194484 25.13493151 -95.875 27.3125 C-88.66479805 32.98610153 -81.12110237 36.75997098 -72 38 C-70.89914063 38.15726563 -69.79828125 38.31453125 -68.6640625 38.4765625 C-54.81114977 39.95769153 -41.56234984 37.09543196 -30 29 C-25.19983636 25.10816427 -20.81315319 20.85508789 -16.5 16.4375 C-14 14 -14 14 -12 14 C-11.67 13.01 -11.34 12.02 -11 11 C-9.38025441 9.28769752 -7.7041054 7.62836738 -6 6 C-4.89323836 4.89843442 -3.78905327 3.7942739 -2.6875 2.6875 C-1.3571875 1.3571875 -1.3571875 1.3571875 0 0 Z " fill="#B11B23" transform="translate(185,211)"/>
<path d="M0 0 C2.98214191 0.34212929 4.60992466 0.63884974 6.84375 2.70703125 C7.3903125 3.40183594 7.936875 4.09664063 8.5 4.8125 C11.10227448 7.99558848 13.76409772 10.45050123 17 13 C17 13.66 17 14.32 17 15 C17.66 15 18.32 15 19 15 C20.23038017 16.42990128 21.45533008 17.86530028 22.63671875 19.3359375 C25.43917886 22.75670542 27.76344297 25.58781432 32 27 C32.495 28.485 32.495 28.485 33 30 C34.62776556 31.73199161 36.27855644 33.36535191 38 35 C40.61209398 37.55446909 43.21169865 40.12154192 45.8125 42.6875 C46.50537109 43.36361328 47.19824219 44.03972656 47.91210938 44.73632812 C48.56630859 45.38408203 49.22050781 46.03183594 49.89453125 46.69921875 C50.78942261 47.57839966 50.78942261 47.57839966 51.70239258 48.4753418 C53 50 53 50 53 52 C53.804375 52.2475 54.60875 52.495 55.4375 52.75 C56.7059375 53.36875 56.7059375 53.36875 58 54 C58.3721042 55.32303717 58.70630173 56.65737935 59 58 C60.79932579 59.06716704 60.79932579 59.06716704 63 60 C66.93579953 62.71757586 68.27685246 64.63469289 70 69 C70.61875 69.28875 71.2375 69.5775 71.875 69.875 C75.26522962 71.66982745 76.25855335 74.64149575 78 78 C76.0625 77.1875 76.0625 77.1875 74 76 C73.67 75.01 73.34 74.02 73 73 C72.34 72.67 71.68 72.34 71 72 C69 71 69 71 68 68 C67.34 67.67 66.68 67.34 66 67 C64 66 64 66 63 63 C62.01 62.505 62.01 62.505 61 62 C59 61 59 61 58 58 C57.01 57.505 57.01 57.505 56 57 C54 56 54 56 53 53 C52.01 52.505 52.01 52.505 51 52 C49 51 49 51 48 48 C47.01 47.505 47.01 47.505 46 47 C44 46 44 46 43 43 C42.01 42.505 42.01 42.505 41 42 C39 41 39 41 38 38 C37.01 37.505 37.01 37.505 36 37 C34 36 34 36 33 33 C32.01 32.505 32.01 32.505 31 32 C29 31 29 31 28 28 C27.34 27.67 26.68 27.34 26 27 C24 26 24 26 23 23 C22.34 22.67 21.68 22.34 21 22 C19 21 19 21 18 18 C17.34 17.67 16.68 17.34 16 17 C14 16 14 16 13 13 C12.34 12.67 11.68 12.34 11 12 C9 11 9 11 8 8 C7.401875 7.731875 6.80375 7.46375 6.1875 7.1875 C3.06423954 5.49201575 1.81732653 2.98560787 0 0 Z " fill="#BD6E77" transform="translate(87,257)"/>
<path d="M0 0 C1.32 0.33 2.64 0.66 4 1 C2.26502365 5.17220503 -0.60467416 8.34593474 -3.5 11.75 C-3.99886719 12.35199219 -4.49773437 12.95398438 -5.01171875 13.57421875 C-6.29418243 15.09048277 -7.64260271 16.55043376 -9 18 C-9.66 18 -10.32 18 -11 18 C-11.268125 18.639375 -11.53625 19.27875 -11.8125 19.9375 C-13 22 -13 22 -16 23 C-16.33 23.66 -16.66 24.32 -17 25 C-17.33 25.66 -17.66 26.32 -18 27 C-18.99 27.33 -19.98 27.66 -21 28 C-21.33 28.66 -21.66 29.32 -22 30 C-22.33 30.66 -22.66 31.32 -23 32 C-24.485 32.495 -24.485 32.495 -26 33 C-26.33 33.66 -26.66 34.32 -27 35 C-27.33 35.66 -27.66 36.32 -28 37 C-29.485 37.495 -29.485 37.495 -31 38 C-31.33 38.66 -31.66 39.32 -32 40 C-32.33 40.66 -32.66 41.32 -33 42 C-34.485 42.495 -34.485 42.495 -36 43 C-36.33 43.66 -36.66 44.32 -37 45 C-37.33 45.66 -37.66 46.32 -38 47 C-39.485 47.495 -39.485 47.495 -41 48 C-41.33 48.66 -41.66 49.32 -42 50 C-42.33 50.66 -42.66 51.32 -43 52 C-44.485 52.495 -44.485 52.495 -46 53 C-46.69937532 54.31647119 -47.36729133 55.65022151 -48 57 C-48.99 57.495 -48.99 57.495 -50 58 C-49.43096831 54.01677818 -48.40909043 51.23981127 -46 48 C-44.01231606 46.64837492 -42.0133653 45.31306433 -40 44 C-39.67 43.01 -39.34 42.02 -39 41 C-38.01 41 -37.02 41 -36 41 C-35.8453125 40.12021484 -35.8453125 40.12021484 -35.6875 39.22265625 C-34.89258043 36.65271742 -33.82245581 35.39576382 -32 33.4375 C-29.88166863 31.15112792 -29.01082314 30.03246941 -28 27 C-27.278125 26.7525 -26.55625 26.505 -25.8125 26.25 C-22.86057969 24.93803542 -22.02259364 24.02293333 -20.0625 21.5625 C-17.38175906 18.22188437 -14.85833861 16.88812315 -11 15 C-9.58676601 13.50022856 -9.58676601 13.50022856 -8.3125 11.8125 C-7.549375 10.884375 -6.78625 9.95625 -6 9 C-5.01 9 -4.02 9 -3 9 C-2.87625 8.2575 -2.7525 7.515 -2.625 6.75 C-2.04513299 4.19858515 -1.26291261 2.2732427 0 0 Z " fill="#D92230" transform="translate(416,247)"/>
<path d="M0 0 C0.33 0.66 0.66 1.32 1 2 C1.66 2 2.32 2 3 2 C2.67 2.928125 2.34 3.85625 2 4.8125 C0.85032996 7.92029291 0.85032996 7.92029291 1 11 C-0.55555556 14.77777778 -0.55555556 14.77777778 -3 16 C-3.8797567 18.43851949 -3.8797567 18.43851949 -4.5625 21.3125 C-4.81128906 22.27800781 -5.06007813 23.24351562 -5.31640625 24.23828125 C-5.54199219 25.14964844 -5.76757812 26.06101563 -6 27 C-6.19464844 27.77730469 -6.38929687 28.55460937 -6.58984375 29.35546875 C-6.72519531 29.89816406 -6.86054687 30.44085938 -7 31 C-7.33 31 -7.66 31 -8 31 C-8.33 28.69 -8.66 26.38 -9 24 C-10.65776005 29.06792735 -11.23859717 33.29465204 -11.1953125 38.68359375 C-11.1924826 39.38396255 -11.18965271 40.08433136 -11.18673706 40.80592346 C-11.17564885 43.0166317 -11.15056703 45.22691671 -11.125 47.4375 C-11.11495546 48.94725972 -11.1058322 50.45702588 -11.09765625 51.96679688 C-11.07574714 55.64466597 -11.04129758 59.3222916 -11 63 C-10.67 63 -10.34 63 -10 63 C-8 73 -8 73 -7.58984375 75.46875 C-6.89508628 78.45022577 -5.75768387 81.02292792 -4.5 83.8125 C-2.41441257 88.67486378 -1.30374644 92.73506166 -1 98 C-5.957951 95.5210245 -7.67683981 87.03527879 -9.40234375 82.02734375 C-9.85677135 80.64493056 -10.30603767 79.26080955 -10.75 77.875 C-10.96052002 77.23103271 -11.17104004 76.58706543 -11.38793945 75.92358398 C-18.21268256 53.82348462 -14.60891098 27.42388631 -4.53125 7.02734375 C-1.53941638 1.53941638 -1.53941638 1.53941638 0 0 Z " fill="#CD7981" transform="translate(78,145)"/>
<path d="M0 0 C7.21624608 7.21624608 6.02911487 21.83598401 6.1875 31.25 C6.01273699 48.37677466 3.60122558 69.65915403 -8.6796875 82.796875 C-9.33324219 83.39242187 -9.33324219 83.39242187 -10 84 C-10 82.68 -10 81.36 -10 80 C-9.34 80 -8.68 80 -8 80 C-7.94392578 79.02160156 -7.94392578 79.02160156 -7.88671875 78.0234375 C-7.44997263 72.21728319 -7.02635294 66.77355265 -2.47143555 62.59912109 C0.28293715 59.60573447 0.46833627 55.5216109 1.1875 51.625 C1.35967041 50.6983252 1.53184082 49.77165039 1.70922852 48.81689453 C3.87154891 36.14225529 4.86568063 22.57912475 0.66796875 10.2421875 C-0.36954861 6.75952687 -0.20415098 3.6066673 0 0 Z " fill="#C55A62" transform="translate(430,164)"/>
<path d="M0 0 C3.4375 0.8125 3.4375 0.8125 7 2 C7.33 2.99 7.66 3.98 8 5 C8.66 5 9.32 5 10 5 C11 6.66666667 12 8.33333333 13 10 C15.36368358 12.48489813 17.82166043 14.8313004 20.3125 17.1875 C22 19 22 19 22 21 C22.99 21 23.98 21 25 21 C25.556875 22.093125 26.11375 23.18625 26.6875 24.3125 C28.62355849 27.72463145 30.47521328 29.19241707 34 31 C35.8125 32.5625 35.8125 32.5625 37 34 C37 34.66 37 35.32 37 36 C37.5775 36.2475 38.155 36.495 38.75 36.75 C41.34908658 38.19393699 43.07836838 39.73521987 45 42 C45 42.99 45 43.98 45 45 C43.0625 44.1875 43.0625 44.1875 41 43 C40.67 42.01 40.34 41.02 40 40 C39.01 39.505 39.01 39.505 38 39 C36 38 36 38 35 35 C34.01 34.505 34.01 34.505 33 34 C31 33 31 33 30 30 C29.34 29.67 28.68 29.34 28 29 C26 28 26 28 25 25 C24.34 24.67 23.68 24.34 23 24 C21 23 21 23 20 20 C19.34 19.67 18.68 19.34 18 19 C16 18 16 18 15 15 C14.34 14.67 13.68 14.34 13 14 C11 13 11 13 10 10 C9.34 9.67 8.68 9.34 8 9 C6 8 6 8 5 5 C4.34 4.67 3.68 4.34 3 4 C1 3 1 3 0 0 Z " fill="#C57E85" transform="translate(175,345)"/>
<path d="M0 0 C1.32 0.33 2.64 0.66 4 1 C3.01 1.33 2.02 1.66 1 2 C0.67 2.66 0.34 3.32 0 4 C-0.33 4.66 -0.66 5.32 -1 6 C-1.99 6.33 -2.98 6.66 -4 7 C-4.33 7.66 -4.66 8.32 -5 9 C-5.33 9.66 -5.66 10.32 -6 11 C-6.99 11.33 -7.98 11.66 -9 12 C-9.33 12.66 -9.66 13.32 -10 14 C-10.33 14.66 -10.66 15.32 -11 16 C-11.99 16.33 -12.98 16.66 -14 17 C-14.33 17.66 -14.66 18.32 -15 19 C-15.33 19.66 -15.66 20.32 -16 21 C-16.99 21.33 -17.98 21.66 -19 22 C-19.33 22.66 -19.66 23.32 -20 24 C-20.33 24.66 -20.66 25.32 -21 26 C-21.99 26.33 -22.98 26.66 -24 27 C-24.309375 27.66 -24.61875 28.32 -24.9375 29 C-26 31 -26 31 -27.875 31.9375 C-30.76820282 32.0225942 -31.89167237 30.88243538 -34 29 C-33.67 28.34 -33.34 27.68 -33 27 C-32.34 27.66 -31.68 28.32 -31 29 C-28.93125966 29.6425235 -28.93125966 29.6425235 -27 30 C-27 28.68 -27 27.36 -27 26 C-25.68 26 -24.36 26 -23 26 C-23 25.01 -23 24.02 -23 23 C-22.01 23 -21.02 23 -20 23 C-19.9175 22.05125 -19.835 21.1025 -19.75 20.125 C-19 17 -19 17 -17.0625 15.6875 C-16.381875 15.460625 -15.70125 15.23375 -15 15 C-14.34 14.67 -13.68 14.34 -13 14 C-13.268125 13.443125 -13.53625 12.88625 -13.8125 12.3125 C-13.874375 11.549375 -13.93625 10.78625 -14 10 C-11.8386373 7.48814606 -9.98037561 5.49018781 -7 4 C-6.34 4.33 -5.68 4.66 -5 5 C-5 3.68 -5 2.36 -5 1 C-2.525 1.495 -2.525 1.495 0 2 C0 1.34 0 0.68 0 0 Z " fill="#AB313A" transform="translate(279,388)"/>
<path d="M0 0 C0.99 0.33 1.98 0.66 3 1 C2.67 1.66 2.34 2.32 2 3 C1.34 3 0.68 3 0 3 C-0.268125 3.639375 -0.53625 4.27875 -0.8125 4.9375 C-2 7 -2 7 -5 8 C-5.33 8.66 -5.66 9.32 -6 10 C-6.33 10.66 -6.66 11.32 -7 12 C-7.99 12.33 -8.98 12.66 -10 13 C-10.33 13.66 -10.66 14.32 -11 15 C-11.33 15.66 -11.66 16.32 -12 17 C-12.99 17.33 -13.98 17.66 -15 18 C-15.33 18.66 -15.66 19.32 -16 20 C-16.33 20.66 -16.66 21.32 -17 22 C-17.99 22.33 -18.98 22.66 -20 23 C-20.33 23.66 -20.66 24.32 -21 25 C-21.33 25.66 -21.66 26.32 -22 27 C-22.99 27.33 -23.98 27.66 -25 28 C-25.33 28.66 -25.66 29.32 -26 30 C-26.33 30.66 -26.66 31.32 -27 32 C-28.485 32.495 -28.485 32.495 -30 33 C-30.69937532 34.31647119 -31.36729133 35.65022151 -32 37 C-32.99 37.495 -32.99 37.495 -34 38 C-33.505 35.03 -33.505 35.03 -33 32 C-32.01 32 -31.02 32 -30 32 C-29.7834375 31.1028125 -29.7834375 31.1028125 -29.5625 30.1875 C-29.1127561 28.43849596 -28.57107659 26.71322977 -28 25 C-25.38502661 23.76132839 -22.74488051 22.91496017 -20 22 C-20 21.01 -20 20.02 -20 19 C-18.35546875 17.28125 -18.35546875 17.28125 -16.1875 15.5 C-11.05259219 11.51293687 -11.05259219 11.51293687 -8 6 C-6.35666496 4.96210419 -4.68756133 3.96432076 -3 3 C-1.24850835 1.41754725 -1.24850835 1.41754725 0 0 Z " fill="#C6555C" transform="translate(360,307)"/>
<path d="M0 0 C16.68970394 1.00138224 31.635235 10.31440062 44 21 C43.01 21.495 43.01 21.495 42 22 C41.01 21.67 40.02 21.34 39 21 C38.505 20.01 38.505 20.01 38 19 C35.67843403 18.59270772 33.3431213 18.25561323 31 18 C30.67 17.01 30.34 16.02 30 15 C29.01 15 28.02 15 27 15 C25.66666667 13.66666667 24.33333333 12.33333333 23 11 C18.92400369 8.6302347 14.71386097 7.1952791 10.25390625 5.75390625 C1.39542144 2.79084287 1.39542144 2.79084287 0 0 Z " fill="#CD6D75" transform="translate(357,100)"/>
<path d="M0 0 C-1.375 2 -1.375 2 -3 4 C-3.66 4 -4.32 4 -5 4 C-5.268125 4.639375 -5.53625 5.27875 -5.8125 5.9375 C-7 8 -7 8 -10 9 C-10.33 9.66 -10.66 10.32 -11 11 C-11.33 11.66 -11.66 12.32 -12 13 C-12.99 13.33 -13.98 13.66 -15 14 C-15.33 14.66 -15.66 15.32 -16 16 C-16.33 16.66 -16.66 17.32 -17 18 C-17.99 18.33 -18.98 18.66 -20 19 C-20.33 19.66 -20.66 20.32 -21 21 C-21.33 21.66 -21.66 22.32 -22 23 C-22.99 23.33 -23.98 23.66 -25 24 C-25.33 24.66 -25.66 25.32 -26 26 C-26.33 26.66 -26.66 27.32 -27 28 C-27.99 28.33 -28.98 28.66 -30 29 C-30.33 29.99 -30.66 30.98 -31 32 C-31.33 32 -31.66 32 -32 32 C-32 30.02 -32 28.04 -32 26 C-31.34 25.67 -30.68 25.34 -30 25 C-30 25.66 -30 26.32 -30 27 C-29.34 27 -28.68 27 -28 27 C-28.33 25.68 -28.66 24.36 -29 23 C-28.38125 22.7525 -27.7625 22.505 -27.125 22.25 C-24.87652198 21.19750102 -24.87652198 21.19750102 -24.125 19.125 C-22.46471341 15.98890312 -20.01287308 14.7575093 -17 13 C-16.34 13 -15.68 13 -15 13 C-15 12.34 -15 11.68 -15 11 C-14.34 11 -13.68 11 -13 11 C-12.67 10.01 -12.34 9.02 -12 8 C-11.34 8 -10.68 8 -10 8 C-9.34 6.35 -8.68 4.7 -8 3 C-7.01 3 -6.02 3 -5 3 C-5.33 2.01 -5.66 1.02 -6 0 C-3 -1 -3 -1 0 0 Z " fill="#C25C60" transform="translate(315,356)"/>
<path d="M0 0 C0.495 1.485 0.495 1.485 1 3 C-1.77057073 8.54114146 -5.94660924 11.92892805 -11.23828125 14.90234375 C-13.39924946 16.24875632 -14.59930659 17.89895989 -16 20 C-16.66 20 -17.32 20 -18 20 C-18.268125 20.61875 -18.53625 21.2375 -18.8125 21.875 C-20 24 -20 24 -23 26 C-23.391875 26.721875 -23.78375 27.44375 -24.1875 28.1875 C-26.78597344 32.21961396 -30.32129949 34.96791193 -34 38 C-34.66 37.67 -35.32 37.34 -36 37 C-35.04578192 35.85073734 -34.08647955 34.70569459 -33.125 33.5625 C-32.59132812 32.92441406 -32.05765625 32.28632813 -31.5078125 31.62890625 C-30 30 -30 30 -28 29 C-27.3503125 27.88625 -27.3503125 27.88625 -26.6875 26.75 C-24.17347103 22.65306389 -21.61928661 19.5397622 -17 18 C-15.97388051 16.34928604 -14.97691857 14.68029994 -14 13 C-11.9375 10.6875 -11.9375 10.6875 -10 9 C-9.34 9 -8.68 9 -8 9 C-7.690625 8.1646875 -7.690625 8.1646875 -7.375 7.3125 C-5.44999226 4.07498698 -2.96149098 2.31768859 0 0 Z " fill="#C61D26" transform="translate(216,181)"/>
<path d="M0 0 C-2.64738916 1.4606285 -3.89448334 2 -7 2 C-7 2.66 -7 3.32 -7 4 C-7.66 4 -8.32 4 -9 4 C-9 4.66 -9 5.32 -9 6 C-10.85043427 7.19820784 -12.75790262 8.30894982 -14.6875 9.375 C-17.89949298 11.15551869 -20.79652015 12.83103905 -23.625 15.1796875 C-27.11149631 17.85190342 -29.68968943 17.70777555 -34 18 C-28.32490328 10.26966965 -19.58145585 5.94528796 -11 2 C-10.3709375 1.68933594 -9.741875 1.37867187 -9.09375 1.05859375 C-5.74302051 -0.52448395 -3.51931886 -1.5485003 0 0 Z " fill="#D02330" transform="translate(311,102)"/>
<path d="M0 0 C0.66 0.33 1.32 0.66 2 1 C1.30326172 1.67579102 0.60652344 2.35158203 -0.11132812 3.04785156 C-2.69320583 5.55733912 -5.26183061 8.08003409 -7.82666016 10.60693359 C-8.9386459 11.69880171 -10.05419489 12.78705318 -11.17333984 13.87158203 C-12.78132095 15.43105262 -14.37604352 17.00307616 -15.96875 18.578125 C-16.72339539 19.30180267 -16.72339539 19.30180267 -17.49328613 20.0401001 C-19.07143161 21.57213638 -19.07143161 21.57213638 -21 24 C-21 25.32 -21 26.64 -21 28 C-23.35953094 30.35953094 -24.77895617 30.49141413 -28 31 C-28.04125 31.7425 -28.0825 32.485 -28.125 33.25 C-29.34857383 37.09551776 -31.59346582 38.04305483 -35 40 C-35.66 39.67 -36.32 39.34 -37 39 C-36.04882866 37.8274869 -35.08882991 36.66212985 -34.125 35.5 C-33.32449219 34.52546875 -33.32449219 34.52546875 -32.5078125 33.53125 C-32.01023438 33.0259375 -31.51265625 32.520625 -31 32 C-30.34 32 -29.68 32 -29 32 C-29 31.34 -29 30.68 -29 30 C-28.34 30 -27.68 30 -27 30 C-27 29.01 -27 28.02 -27 27 C-27.66 27 -28.32 27 -29 27 C-29.33 25.02 -29.66 23.04 -30 21 C-28.68 21.99 -27.36 22.98 -26 24 C-22.13671373 22.4152642 -19.71123077 19.94043113 -16.796875 16.9921875 C-16.3142218 16.50670441 -15.8315686 16.02122131 -15.33428955 15.52102661 C-13.80141438 13.97700134 -12.27565996 12.42615176 -10.75 10.875 C-9.70879639 9.82375991 -8.66713459 8.77297343 -7.625 7.72265625 C-5.07800536 5.15366996 -2.53734823 2.57851839 0 0 Z " fill="#D96D75" transform="translate(275,120)"/>
<path d="M0 0 C0.33 0.66 0.66 1.32 1 2 C1.66 2 2.32 2 3 2 C2.67 2.928125 2.34 3.85625 2 4.8125 C0.85032996 7.92029291 0.85032996 7.92029291 1 11 C-0.55555556 14.77777778 -0.55555556 14.77777778 -3 16 C-3.8797567 18.43851949 -3.8797567 18.43851949 -4.5625 21.3125 C-4.93568359 22.76076172 -4.93568359 22.76076172 -5.31640625 24.23828125 C-5.54199219 25.14964844 -5.76757812 26.06101563 -6 27 C-6.19464844 27.77730469 -6.38929687 28.55460937 -6.58984375 29.35546875 C-6.72519531 29.89816406 -6.86054687 30.44085938 -7 31 C-7.33 31 -7.66 31 -8 31 C-8.90881518 18.95459245 -8.0898968 11.20129036 -1 1 C-0.67 0.67 -0.34 0.34 0 0 Z " fill="#CB212E" transform="translate(78,145)"/>
<path d="M0 0 C0.66 0.33 1.32 0.66 2 1 C0.60596932 2.5641085 -0.79031505 4.1262085 -2.1875 5.6875 C-3.00863281 6.60660156 -3.82976562 7.52570313 -4.67578125 8.47265625 C-7 11 -7 11 -9.875 13.625 C-11.96410154 15.95987819 -12.50964314 17.17288864 -13.4375 20.0625 C-14.88071595 24.50122812 -16.94597304 25.83785229 -21 28 C-21.66 27.67 -22.32 27.34 -23 27 C-19.21972795 16.28606313 -9.09658645 6.53561054 0 0 Z " fill="#CD2832" transform="translate(102,118)"/>
<path d="M0 0 C0.66 0.33 1.32 0.66 2 1 C1.13375 1.76183594 1.13375 1.76183594 0.25 2.5390625 C-4.54893292 6.6010381 -4.54893292 6.6010381 -6.1875 12.3125 C-6.125625 13.199375 -6.06375 14.08625 -6 15 C-7.63880449 16.04503475 -9.31243867 17.03567924 -11 18 C-12.80362834 19.52452673 -14.57450937 21.08854862 -16.3125 22.6875 C-17.63701172 23.89986328 -17.63701172 23.89986328 -18.98828125 25.13671875 C-19.98408203 26.05904297 -19.98408203 26.05904297 -21 27 C-21.33 26.34 -21.66 25.68 -22 25 C-22.66 24.67 -23.32 24.34 -24 24 C-16.08 16.08 -8.16 8.16 0 0 Z M-24 27 C-23.34 27 -22.68 27 -22 27 C-22.33 27.66 -22.66 28.32 -23 29 C-23.33 28.34 -23.66 27.68 -24 27 Z " fill="#E51F2B" transform="translate(277,120)"/>
<path d="M0 0 C1.32 0.33 2.64 0.66 4 1 C2.26502365 5.17220503 -0.60467416 8.34593474 -3.5 11.75 C-3.99886719 12.35199219 -4.49773437 12.95398438 -5.01171875 13.57421875 C-6.29418243 15.09048277 -7.64260271 16.55043376 -9 18 C-9.66 18 -10.32 18 -11 18 C-11.268125 18.639375 -11.53625 19.27875 -11.8125 19.9375 C-13 22 -13 22 -16 23 C-17.20882096 25.00016466 -17.20882096 25.00016466 -18 27 C-19.32 27 -20.64 27 -22 27 C-21.67 26.34 -21.34 25.68 -21 25 C-20.34 25 -19.68 25 -19 25 C-18.71125 24.4225 -18.4225 23.845 -18.125 23.25 C-17.75375 22.5075 -17.3825 21.765 -17 21 C-16.731875 20.319375 -16.46375 19.63875 -16.1875 18.9375 C-14.60409833 16.35405516 -12.5877695 15.54033899 -10 14 C-8.948125 12.6696875 -8.948125 12.6696875 -7.875 11.3125 C-7.25625 10.549375 -6.6375 9.78625 -6 9 C-5.01 9 -4.02 9 -3 9 C-2.87625 8.2575 -2.7525 7.515 -2.625 6.75 C-2.04513299 4.19858515 -1.26291261 2.2732427 0 0 Z " fill="#CA5863" transform="translate(416,247)"/>
<path d="M0 0 C0.80824219 0.11085938 1.61648437 0.22171875 2.44921875 0.3359375 C3.37154297 0.47902344 3.37154297 0.47902344 4.3125 0.625 C4.3125 1.285 4.3125 1.945 4.3125 2.625 C3.075 2.686875 1.8375 2.74875 0.5625 2.8125 C-2.9113094 3.23132808 -3.54198989 3.48312764 -6.1875 6.0625 C-7.85589307 8.41779759 -7.85589307 8.41779759 -7.6875 10.625 C-9.110625 10.9653125 -9.110625 10.9653125 -10.5625 11.3125 C-13.88073388 12.31583714 -13.88073388 12.31583714 -15.0625 15.25 C-15.26875 16.03375 -15.475 16.8175 -15.6875 17.625 C-16.6775 17.625 -17.6675 17.625 -18.6875 17.625 C-18.6875 18.285 -18.6875 18.945 -18.6875 19.625 C-20.0075 19.955 -21.3275 20.285 -22.6875 20.625 C-22.30271157 17.1619041 -20.84095159 15.57588028 -18.3515625 13.25390625 C-15.31438101 10.28089057 -12.57733471 7.02349787 -9.7734375 3.83203125 C-6.45375139 0.31962928 -4.70400458 -0.68173979 0 0 Z M4.3125 -0.375 C6.3125 0.625 6.3125 0.625 6.3125 0.625 Z " fill="#DF1E2A" transform="translate(111.6875,116.375)"/>
<path d="M0 0 C0.33 0 0.66 0 1 0 C1.22888147 5.63302738 0.93750319 10.93440008 0 16.5 C-1.81460009 27.63386768 -0.53952477 37.92091994 1 49 C-2.4363868 45.5636132 -3.23541445 43.35374896 -3.30354309 38.55465698 C-3.30263168 37.83279205 -3.30172028 37.11092712 -3.30078125 36.3671875 C-3.30720894 35.24028 -3.30720894 35.24028 -3.31376648 34.09060669 C-3.31950912 32.49856573 -3.32001051 30.90649853 -3.31567383 29.31445312 C-3.31253835 26.90447734 -3.33588618 24.49575931 -3.36132812 22.0859375 C-3.39222548 14.23678592 -3.19977217 7.31135276 0 0 Z " fill="#BB1B28" transform="translate(69,167)"/>
<path d="M0 0 C2.4375 0.75 2.4375 0.75 5 2 C5.3721042 3.32303717 5.70630173 4.65737935 6 6 C7.79932579 7.06716704 7.79932579 7.06716704 10 8 C13.93579953 10.71757586 15.27685246 12.63469289 17 17 C17.61875 17.28875 18.2375 17.5775 18.875 17.875 C22.26522962 19.66982745 23.25855335 22.64149575 25 26 C23.0625 25.1875 23.0625 25.1875 21 24 C20.67 23.01 20.34 22.02 20 21 C19.34 20.67 18.68 20.34 18 20 C16 19 16 19 15 16 C14.34 15.67 13.68 15.34 13 15 C11 14 11 14 10 11 C9.34 10.67 8.68 10.34 8 10 C6 9 6 9 5 6 C4.34 5.690625 3.68 5.38125 3 5.0625 C1 4 1 4 0.25 1.875 C0.1675 1.25625 0.085 0.6375 0 0 Z " fill="#BF757C" transform="translate(140,309)"/>
<path d="M0 0 C0.99 0 1.98 0 3 0 C3.33 0.99 3.66 1.98 4 3 C5.62714721 4.73439797 7.27531282 6.3671029 9 8 C11.61327119 10.53241938 14.21335991 13.07809144 16.8125 15.625 C17.50537109 16.29273438 18.19824219 16.96046875 18.91210938 17.6484375 C19.56630859 18.29296875 20.22050781 18.9375 20.89453125 19.6015625 C21.49112549 20.18244629 22.08771973 20.76333008 22.70239258 21.36181641 C24 23 24 23 24 26 C22.0625 25.1875 22.0625 25.1875 20 24 C19.67 23.01 19.34 22.02 19 21 C18.34 20.67 17.68 20.34 17 20 C15 19 15 19 14 16 C13.34 15.67 12.68 15.34 12 15 C10 14 10 14 9 11 C8.401875 10.731875 7.80375 10.46375 7.1875 10.1875 C3.21782585 8.03253403 1.38954774 4.16864321 0 0 Z " fill="#B7666E" transform="translate(116,284)"/>
<path d="M0 0 C1.98 0.99 3.96 1.98 6 3 C6 3.66 6 4.32 6 5 C6.556875 5.226875 7.11375 5.45375 7.6875 5.6875 C10.64909936 7.36840775 12.6142383 9.5691585 15 12 C15.88300781 12.84820312 16.76601562 13.69640625 17.67578125 14.5703125 C18.98095703 15.83488281 18.98095703 15.83488281 20.3125 17.125 C21.63701172 18.39730469 21.63701172 18.39730469 22.98828125 19.6953125 C25 22 25 22 25 25 C23.0625 24.1875 23.0625 24.1875 21 23 C20.67 22.01 20.34 21.02 20 20 C19.34 19.67 18.68 19.34 18 19 C16 18 16 18 15 15 C14.34 14.67 13.68 14.34 13 14 C11 13 11 13 10 10 C9.34 9.67 8.68 9.34 8 9 C6 8 6 8 5 5 C4.34 4.67 3.68 4.34 3 4 C1 3 1 3 0 0 Z " fill="#B7616B" transform="translate(220,390)"/>
<path d="M0 0 C0.66 0 1.32 0 2 0 C0.50592885 4.7312253 0.50592885 4.7312253 -2 6.0625 C-2.66 6.371875 -3.32 6.68125 -4 7 C-4.68268138 8.32520503 -5.3507041 9.65812182 -6 11 C-6.99 11.33 -7.98 11.66 -9 12 C-9.33 12.66 -9.66 13.32 -10 14 C-10.33 14.66 -10.66 15.32 -11 16 C-11.99 16.33 -12.98 16.66 -14 17 C-14.69937532 18.31647119 -15.36729133 19.65022151 -16 21 C-16.66 21.33 -17.32 21.66 -18 22 C-17.43096831 18.01677818 -16.40909043 15.23981127 -14 12 C-12.01231606 10.64837492 -10.0133653 9.31306433 -8 8 C-7.67 7.01 -7.34 6.02 -7 5 C-5.35 5 -3.7 5 -2 5 C-2 4.01 -2 3.02 -2 2 C-1.34 2 -0.68 2 0 2 C0 1.34 0 0.68 0 0 Z " fill="#CB545B" transform="translate(384,283)"/>
<path d="M0 0 C3.4375 0.8125 3.4375 0.8125 7 2 C7.33 2.99 7.66 3.98 8 5 C8.66 5 9.32 5 10 5 C11 6.66666667 12 8.33333333 13 10 C14.62449243 11.70779973 16.29220027 13.37550757 18 15 C19.33333333 16.33333333 20.66666667 17.66666667 22 19 C21.67 19.66 21.34 20.32 21 21 C16.125 18.375 16.125 18.375 15 15 C14.34 14.67 13.68 14.34 13 14 C11 13 11 13 10 10 C9.34 9.67 8.68 9.34 8 9 C6 8 6 8 5 5 C4.34 4.67 3.68 4.34 3 4 C1 3 1 3 0 0 Z " fill="#C0747B" transform="translate(175,345)"/>
<path d="M0 0 C2.80581263 2.38494073 4.27615602 5.17759273 6.015625 8.35546875 C7.11593185 10.19367979 8.45303088 11.53037934 10 13 C10 13.66 10 14.32 10 15 C10.66 15 11.32 15 12 15 C11.835 15.53625 11.67 16.0725 11.5 16.625 C10.90339788 19.45886009 10.9343632 22.1119806 11 25 C10.01 25 9.02 25 8 25 C6 19 6 19 5.3046875 16.84375 C4.11647477 13.1915593 2.88414765 9.63155348 1.3125 6.125 C0 3 0 3 0 0 Z " fill="#920C15" transform="translate(69,218)"/>
<path d="M0 0 C1.32 0 2.64 0 4 0 C4.33 1.98 4.66 3.96 5 6 C5.66 6 6.32 6 7 6 C7 6.99 7 7.98 7 9 C6.34 9 5.68 9 5 9 C5 9.66 5 10.32 5 11 C3.46875 12.5078125 3.46875 12.5078125 1.5 14.125 C0.8503125 14.66382813 0.200625 15.20265625 -0.46875 15.7578125 C-0.9740625 16.16773438 -1.479375 16.57765625 -2 17 C-2.66 16.67 -3.32 16.34 -4 16 C-3.34 15.34 -2.68 14.68 -2 14 C-1.57358892 11.43824536 -1.57358892 11.43824536 -1.4375 8.5625 C-1.23248694 5.42036099 -1.00035227 3.00105681 0 0 Z " fill="#9E0F16" transform="translate(241,141)"/>
<path d="M0 0 C0.37752528 5.61301742 -0.54928368 8.87575506 -3.3125 13.75 C-3.92738281 14.85859375 -4.54226563 15.9671875 -5.17578125 17.109375 C-6.65396997 19.45168689 -7.93384752 21.1945006 -10 23 C-10 21.68 -10 20.36 -10 19 C-9.34 19 -8.68 19 -8 19 C-7.96261719 18.34773438 -7.92523438 17.69546875 -7.88671875 17.0234375 C-7.4182622 10.79572101 -6.59758817 5.99721712 -2.375 1.125 C-1 0 -1 0 0 0 Z " fill="#D0212C" transform="translate(430,225)"/>
<path d="M0 0 C4.77294592 2.09545548 7.41758778 5.54480308 10.75 9.4375 C11.65298828 10.4594043 11.65298828 10.4594043 12.57421875 11.50195312 C13.14269531 12.16001953 13.71117187 12.81808594 14.296875 13.49609375 C14.81604492 14.09607178 15.33521484 14.6960498 15.87011719 15.31420898 C17 17 17 17 17 20 C13.75 20 13.75 20 10 19 C6.98883225 15.20783774 6 11.80618296 6 7 C5.34 7 4.68 7 4 7 C2.50475822 4.7272325 1.21600285 2.4320057 0 0 Z " fill="#DB202A" transform="translate(403,124)"/>
<path d="M0 0 C-1.24034412 1.32162881 -2.49268626 2.63200453 -3.75 3.9375 C-4.44609375 4.66839844 -5.1421875 5.39929688 -5.859375 6.15234375 C-8.03628525 8.03131921 -9.18313568 8.67475381 -12 9 C-13.67542976 8.71395102 -15.34385343 8.38218767 -17 8 C-17.99 8 -18.98 8 -20 8 C-5.78640777 -2.89320388 -5.78640777 -2.89320388 0 0 Z " fill="#D91F2D" transform="translate(124,109)"/>
<path d="M0 0 C0.99 0.33 1.98 0.66 3 1 C1.625 3 1.625 3 0 5 C-0.66 5 -1.32 5 -2 5 C-2.268125 5.639375 -2.53625 6.27875 -2.8125 6.9375 C-4 9 -4 9 -7 10 C-7.33 10.66 -7.66 11.32 -8 12 C-8.33 12.66 -8.66 13.32 -9 14 C-9.99 14.33 -10.98 14.66 -12 15 C-12.309375 15.66 -12.61875 16.32 -12.9375 17 C-14 19 -14 19 -15.875 19.9375 C-18.76820282 20.0225942 -19.89167237 18.88243538 -22 17 C-21.67 16.34 -21.34 15.68 -21 15 C-20.34 15.66 -19.68 16.32 -19 17 C-16.93125966 17.6425235 -16.93125966 17.6425235 -15 18 C-15 16.68 -15 15.36 -15 14 C-13.68 14 -12.36 14 -11 14 C-11 13.01 -11 12.02 -11 11 C-10.01 11 -9.02 11 -8 11 C-7.9175 10.05125 -7.835 9.1025 -7.75 8.125 C-7 5 -7 5 -5.125 3.8125 C-4.42375 3.544375 -3.7225 3.27625 -3 3 C-1.29078411 1.4587688 -1.29078411 1.4587688 0 0 Z " fill="#BB626C" transform="translate(267,400)"/>
<path d="M0 0 C0.33 0 0.66 0 1 0 C1.40411795 11.07956701 1.26136959 21.7537789 -0.75 32.6875 C-0.90694336 33.58944092 -1.06388672 34.49138184 -1.22558594 35.4206543 C-1.47743652 36.6722937 -1.47743652 36.6722937 -1.734375 37.94921875 C-1.88100586 38.68487061 -2.02763672 39.42052246 -2.17871094 40.1784668 C-3.27208535 42.60345683 -4.57810893 43.05839289 -7 44 C-7 41.36 -7 38.72 -7 36 C-6.03126953 35.65388672 -6.03126953 35.65388672 -5.04296875 35.30078125 C-2.78102588 34.18651241 -2.78102588 34.18651241 -2.42578125 31.79296875 C-2.38839844 30.93316406 -2.35101563 30.07335937 -2.3125 29.1875 C-2.04987611 24.22766033 -2.04987611 24.22766033 -1.515625 21.7890625 C-0.7436315 17.61327946 -0.63022851 13.4243678 -0.4375 9.1875 C-0.39431641 8.30384766 -0.35113281 7.42019531 -0.30664062 6.50976562 C-0.20108464 4.34000377 -0.10008929 2.1700209 0 0 Z " fill="#D8222C" transform="translate(433,183)"/>
<path d="M0 0 C0.33 0.66 0.66 1.32 1 2 C0.67 2.99 0.34 3.98 0 5 C-0.99 5 -1.98 5 -3 5 C-3 5.99 -3 6.98 -3 8 C-4.32 8 -5.64 8 -7 8 C-7 9.32 -7 10.64 -7 12 C-9.3125 11.8125 -9.3125 11.8125 -12 11 C-13.8125 8.4375 -13.8125 8.4375 -15 6 C-14.34 5.34 -13.68 4.68 -13 4 C-12.67 5.32 -12.34 6.64 -12 8 C-11.34 8 -10.68 8 -10 8 C-9.814375 7.401875 -9.62875 6.80375 -9.4375 6.1875 C-7.32399653 2.97129906 -4.51581222 2.34240103 -1 1 C-0.67 0.67 -0.34 0.34 0 0 Z " fill="#8E1017" transform="translate(259,406)"/>
<path d="M0 0 C0.33 0.99 0.66 1.98 1 3 C0.16597656 3.10957031 -0.66804688 3.21914062 -1.52734375 3.33203125 C-7.66399709 4.19664564 -13.33990973 5.17988666 -19.09765625 7.51171875 C-21.39144421 8.10047336 -22.77868768 7.73713928 -25 7 C-22.01234369 5.6375734 -19.01079603 4.31047128 -16 3 C-15.30777344 2.69191406 -14.61554688 2.38382812 -13.90234375 2.06640625 C-9.06727378 0.05740103 -5.23013324 -0.28018571 0 0 Z " fill="#C94450" transform="translate(143,101)"/>
<path d="M0 0 C0.99 0 1.98 0 3 0 C3 1.32 3 2.64 3 4 C2.34 4 1.68 4 1 4 C0.731875 4.639375 0.46375 5.27875 0.1875 5.9375 C-1 8 -1 8 -4 9 C-4.33 9.66 -4.66 10.32 -5 11 C-5.33 11.66 -5.66 12.32 -6 13 C-6.99 13.33 -7.98 13.66 -9 14 C-9.33 14.99 -9.66 15.98 -10 17 C-10.33 17 -10.66 17 -11 17 C-11 15.02 -11 13.04 -11 11 C-10.34 10.67 -9.68 10.34 -9 10 C-9 10.66 -9 11.32 -9 12 C-8.34 12 -7.68 12 -7 12 C-7.33 10.68 -7.66 9.36 -8 8 C-7.38125 7.7525 -6.7625 7.505 -6.125 7.25 C-3.61104784 5.77120461 -3.1465949 4.62078835 -2 2 C-1.34 1.34 -0.68 0.68 0 0 Z " fill="#BD5C64" transform="translate(294,371)"/>
<path d="M0 0 C0.99 0.33 1.98 0.66 3 1 C2.67 1.66 2.34 2.32 2 3 C1.34 3 0.68 3 0 3 C-0.268125 3.639375 -0.53625 4.27875 -0.8125 4.9375 C-2 7 -2 7 -5 8 C-5.33 8.66 -5.66 9.32 -6 10 C-6.33 10.66 -6.66 11.32 -7 12 C-7.99 12.33 -8.98 12.66 -10 13 C-11.20882096 15.00016466 -11.20882096 15.00016466 -12 17 C-12.75 15.25 -12.75 15.25 -13 13 C-11.125 10.9375 -11.125 10.9375 -9 9 C-8.67 8.01 -8.34 7.02 -8 6 C-6.35666496 4.96210419 -4.68756133 3.96432076 -3 3 C-1.24850835 1.41754725 -1.24850835 1.41754725 0 0 Z " fill="#C95860" transform="translate(360,307)"/>
<path d="M0 0 C4.27411651 0.48469363 5.95055114 1.541098 8.625 4.875 C11.00594184 7.81650015 11.00594184 7.81650015 13.60546875 10.55859375 C15.69514799 12.71851431 16.73931301 15.29852788 18 18 C16.0625 17.1875 16.0625 17.1875 14 16 C13.67 15.01 13.34 14.02 13 13 C12.34 12.67 11.68 12.34 11 12 C9 11 9 11 8 8 C7.401875 7.731875 6.80375 7.46375 6.1875 7.1875 C3.06423954 5.49201575 1.81732653 2.98560787 0 0 Z " fill="#C2787E" transform="translate(87,257)"/>
<path d="M0 0 C6.21767147 3.18113424 8.3864335 7.65111501 11 14 C11 14.33 11 14.66 11 15 C9.02 15 7.04 15 5 15 C5.20625 14.071875 5.4125 13.14375 5.625 12.1875 C6.36692966 8.84826598 6.36692966 8.84826598 4 6 C2.35 6.33 0.7 6.66 -1 7 C-1.625 4.625 -1.625 4.625 -2 2 C-1.34 1.34 -0.68 0.68 0 0 Z " fill="#EC1B23" transform="translate(403,129)"/>
<path d="M0 0 C6.52823181 0.03072109 12.06161195 1.53255574 18.0625 3.9375 C18.72967041 4.20256348 19.39684082 4.46762695 20.08422852 4.74072266 C24.86635414 6.73270827 24.86635414 6.73270827 26 9 C22.30962722 10.37095624 20.29116165 9.60010967 16.75 8.0625 C15.85796875 7.68222656 14.9659375 7.30195312 14.046875 6.91015625 C13.03367188 6.45962891 13.03367188 6.45962891 12 6 C12 5.01 12 4.02 12 3 C8.7 3 5.4 3 2 3 C2 2.34 2 1.68 2 1 C1.34 0.67 0.68 0.34 0 0 Z " fill="#C6616A" transform="translate(180,99)"/>
<path d="M0 0 C0.66 0.33 1.32 0.66 2 1 C1.06027344 2.03060547 1.06027344 2.03060547 0.1015625 3.08203125 C-0.71570313 3.98308594 -1.53296875 4.88414063 -2.375 5.8125 C-3.18710938 6.70582031 -3.99921875 7.59914063 -4.8359375 8.51953125 C-7.09072907 10.99632674 -7.09072907 10.99632674 -9 14 C-10.9375 14.5625 -10.9375 14.5625 -13 15 C-13.99 15.66 -14.98 16.32 -16 17 C-14.43122496 13.20144921 -12.03476878 10.79977997 -9.125 7.9375 C-8.26132813 7.08027344 -7.39765625 6.22304687 -6.5078125 5.33984375 C-4.41510391 3.387301 -2.33074012 1.65319939 0 0 Z " fill="#D27582" transform="translate(102,118)"/>
<path d="M0 0 C2.375 -0.1875 2.375 -0.1875 5 0 C7.1519437 3.22791555 7.20086443 4.28400809 7 8 C9.64 8 12.28 8 15 8 C14.67 9.32 14.34 10.64 14 12 C8.61092846 11.00202379 4.51475273 8.14238715 1 4 C0.25 1.75 0.25 1.75 0 0 Z " fill="#8C1118" transform="translate(161,328)"/>
<path d="M0 0 C4.455 1.98 4.455 1.98 9 4 C9 5.32 9 6.64 9 8 C9.66 8 10.32 8 11 8 C11 8.66 11 9.32 11 10 C12.65 10 14.3 10 16 10 C16.33 11.98 16.66 13.96 17 16 C13.60140297 14.53033642 11.35036291 12.61962486 8.75 10 C8.04359375 9.29875 7.3371875 8.5975 6.609375 7.875 C5 6 5 6 5 4 C3.35 3.67 1.7 3.34 0 3 C0 2.01 0 1.02 0 0 Z " fill="#880B11" transform="translate(87,254)"/>
<path d="M0 0 C0.66 0.33 1.32 0.66 2 1 C1.45730469 1.51949219 0.91460937 2.03898437 0.35546875 2.57421875 C-3.36876653 6.20450935 -6.39365976 9.47319852 -9 14 C-9.99 14.33 -10.98 14.66 -12 15 C-12.33 15.99 -12.66 16.98 -13 18 C-14.65 18.33 -16.3 18.66 -18 19 C-12.44964797 12.21623641 -6.23557973 6.14477032 0 0 Z " fill="#BB212F" transform="translate(277,120)"/>
<path d="M0 0 C0.99 0.495 0.99 0.495 2 1 C2 1.66 2 2.32 2 3 C2.886875 3.04125 3.77375 3.0825 4.6875 3.125 C9.28166459 4.33855291 10.35346912 6.10804282 13 10 C13 10.99 13 11.98 13 13 C13.66 13 14.32 13 15 13 C14.67 13.66 14.34 14.32 14 15 C11.37098712 13.47793991 9.15634036 12.15634036 7 10 C7 9.01 7 8.02 7 7 C6.34 7 5.68 7 5 7 C5 6.34 5 5.68 5 5 C3.68 5 2.36 5 1 5 C0.67 3.35 0.34 1.7 0 0 Z " fill="#CE2735" transform="translate(394,118)"/>
<path d="M0 0 C-0.99 0.33 -1.98 0.66 -3 1 C-2.67 2.65 -2.34 4.3 -2 6 C-2.66 6 -3.32 6 -4 6 C-4 5.01 -4 4.02 -4 3 C-5.65 4.32 -7.3 5.64 -9 7 C-9.66 6.34 -10.32 5.68 -11 5 C-11.99 5.66 -12.98 6.32 -14 7 C-14 5.68 -14 4.36 -14 3 C-12.23358317 2.3012307 -10.46167336 1.61633417 -8.6875 0.9375 C-7.20830078 0.36322266 -7.20830078 0.36322266 -5.69921875 -0.22265625 C-3 -1 -3 -1 0 0 Z " fill="#E51D28" transform="translate(138,105)"/>
<path d="M0 0 C0.33 0.66 0.66 1.32 1 2 C1.66 2 2.32 2 3 2 C2.67 3.32 2.34 4.64 2 6 C0.68 6.33 -0.64 6.66 -2 7 C-2.2475 8.093125 -2.495 9.18625 -2.75 10.3125 C-4.02002851 14.05908409 -4.65756352 15.10595266 -8 17 C-7.400327 12.89223994 -6.0282733 9.85798616 -4 6.25 C-3.195625 4.80367187 -3.195625 4.80367187 -2.375 3.328125 C-1 1 -1 1 0 0 Z " fill="#CD545C" transform="translate(78,145)"/>
<path d="M0 0 C3.80877286 3.80877286 4.8421269 9.62223786 5.19140625 14.8828125 C5.18801581 17.26289901 5.13648821 19.62409415 5 22 C0.64669908 15.47004862 -0.43664818 7.71411784 0 0 Z " fill="#CD6D73" transform="translate(430,164)"/>
<path d="M0 0 C2.83150018 1.36408038 5.04424479 2.94424207 7.48828125 4.9140625 C8.67357422 5.86152344 8.67357422 5.86152344 9.8828125 6.828125 C10.77033203 7.55128906 10.77033203 7.55128906 11.67578125 8.2890625 C10.68578125 8.7840625 10.68578125 8.7840625 9.67578125 9.2890625 C8.68578125 8.9590625 7.69578125 8.6290625 6.67578125 8.2890625 C6.34578125 7.6290625 6.01578125 6.9690625 5.67578125 6.2890625 C3.35421528 5.88177022 1.01890255 5.54467573 -1.32421875 5.2890625 C-1.65421875 4.2990625 -1.98421875 3.3090625 -2.32421875 2.2890625 C-3.31421875 2.2890625 -4.30421875 2.2890625 -5.32421875 2.2890625 C-3.88450991 -0.59035518 -3.08552072 -0.94380634 0 0 Z " fill="#D2636B" transform="translate(389.32421875,112.7109375)"/>
<path d="M0 0 C0.99 0.33 1.98 0.66 3 1 C3 1.66 3 2.32 3 3 C1.2421875 3.94401042 -0.515625 4.88802083 -2.2734375 5.83203125 C-4.30502365 7.04763493 -4.30502365 7.04763493 -6 10 C-6.66 10 -7.32 10 -8 10 C-8 10.99 -8 11.98 -8 13 C-10.5 14.6875 -10.5 14.6875 -13 16 C-13 15.01 -13 14.02 -13 13 C-12.01 12.34 -11.02 11.68 -10 11 C-9.27034634 8.43717258 -9.27034634 8.43717258 -9 6 C-8.401875 5.855625 -7.80375 5.71125 -7.1875 5.5625 C-5.43849596 5.1127561 -3.71322977 4.57107659 -2 4 C-0.79117904 1.99983534 -0.79117904 1.99983534 0 0 Z " fill="#D71E2A" transform="translate(348,316)"/>
<path d="M0 0 C5.10663665 5.10663665 6.4844166 13.03962408 7 20 C2.88637243 17.94318622 1.46778649 12.14498506 0 8 C-0.36693206 5.16180264 -0.27059772 2.86833587 0 0 Z " fill="#B85E68" transform="translate(70,223)"/>
<path d="M0 0 C5.20256251 -0.30603309 7.67532526 0.21985195 12 3 C13.4890247 3.53179454 14.99056896 4.02923685 16.5 4.5 C20.00049667 5.60449728 22.93951314 6.92676696 26 9 C24 10 24 10 21.09375 9.14453125 C19.9078125 8.70496094 18.721875 8.26539062 17.5 7.8125 C16.87722168 7.58344971 16.25444336 7.35439941 15.61279297 7.1184082 C10.36974716 5.17666403 5.16850566 3.13171086 0 1 C0 0.67 0 0.34 0 0 Z " fill="#DE222C" transform="translate(357,103)"/>
<path d="M0 0 C2.99039556 3.31022396 3.41936567 5.72009628 3.625 10.125 C3.72475434 14.21558923 3.72475434 14.21558923 5 18 C5.04022391 20.3329866 5.04320247 22.66706666 5 25 C4.67 25 4.34 25 4 25 C2.31673547 20.62351222 1.6321495 16.58579397 1.24609375 11.953125 C1.10013932 9.92370233 1.10013932 9.92370233 0 8 C-0.13415472 5.3276379 -0.04318541 2.67749512 0 0 Z " fill="#D23F49" transform="translate(427,156)"/>
<path d="M0 0 C1.32 0.33 2.64 0.66 4 1 C2.56438314 4.18706942 0.79733671 6.62169105 -1.5 9.25 C-2.1084375 9.95640625 -2.716875 10.6628125 -3.34375 11.390625 C-5 13 -5 13 -7 13 C-6.67 11.68 -6.34 10.36 -6 9 C-5.01 9 -4.02 9 -3 9 C-2.814375 7.88625 -2.814375 7.88625 -2.625 6.75 C-2.04513299 4.19858515 -1.26291261 2.2732427 0 0 Z " fill="#C74C52" transform="translate(416,247)"/>
<path d="M0 0 C0.78375 0.185625 1.5675 0.37125 2.375 0.5625 C4.97089775 1.25962266 4.97089775 1.25962266 7 0 C6.690625 0.5775 6.38125 1.155 6.0625 1.75 C5.07416636 3.84294184 4.4831387 5.74535275 4 8 C2.68 8.33 1.36 8.66 0 9 C-0.84454356 5.62182575 -1.10844919 3.32534757 0 0 Z " fill="#EA1C25" transform="translate(409,248)"/>
<path d="M0 0 C-2.64738916 1.4606285 -3.89448334 2 -7 2 C-7 2.66 -7 3.32 -7 4 C-7.66 4 -8.32 4 -9 4 C-9 4.66 -9 5.32 -9 6 C-12.3 6.33 -15.6 6.66 -19 7 C-14.2067127 2.52626518 -6.68156434 -2.391784 0 0 Z " fill="#DD939A" transform="translate(311,102)"/>
<path d="M0 0 C3.71045247 1.57780923 6.29906384 3.90703248 9.25 6.625 C10.14203125 7.44226563 11.0340625 8.25953125 11.953125 9.1015625 C12.96632812 10.04128906 12.96632812 10.04128906 14 11 C13.01 11.495 13.01 11.495 12 12 C9.96855359 11.06553465 7.96466413 10.06775224 6 9 C6 7.68 6 6.36 6 5 C4.02 4.34 2.04 3.68 0 3 C0 2.01 0 1.02 0 0 Z " fill="#C25D67" transform="translate(217,115)"/>
<path d="M0 0 C1.98 0.99 3.96 1.98 6 3 C6 3.66 6 4.32 6 5 C6.5775 5.20625 7.155 5.4125 7.75 5.625 C11.34536885 7.82216985 13.14555326 11.29110653 15 15 C13.0625 14.1875 13.0625 14.1875 11 13 C10.67 12.01 10.34 11.02 10 10 C9.34 9.67 8.68 9.34 8 9 C6 8 6 8 5 5 C4.34 4.67 3.68 4.34 3 4 C1 3 1 3 0 0 Z " fill="#CF9499" transform="translate(220,390)"/>
<path d="M0 0 C4.98330807 4.6790945 8.09410344 10.88232303 11 17 C10.34 17 9.68 17 9 17 C7.34375 15.171875 7.34375 15.171875 5.5 12.75 C4.8915625 11.96109375 4.283125 11.1721875 3.65625 10.359375 C0.97997058 6.54693922 0 4.76325571 0 0 Z " fill="#B41D25" transform="translate(70,216)"/>
<path d="M0 0 C0.33 0 0.66 0 1 0 C1.20413361 5.73842251 1.27141454 10.60539047 -1 16 C-3.31323995 12.53014008 -3.03975162 11.01711296 -2.42578125 7.0078125 C-1.89999623 4.52842261 -1.07459989 2.29247976 0 0 Z " fill="#BF2834" transform="translate(69,167)"/>
<path d="M0 0 C-0.99 0 -1.98 0 -3 0 C-3.33 0.99 -3.66 1.98 -4 3 C-5.58086048 3.36504603 -7.16483907 3.71660506 -8.75 4.0625 C-9.63171875 4.25972656 -10.5134375 4.45695312 -11.421875 4.66015625 C-13.98679028 4.99825872 -15.57091639 4.81158635 -18 4 C-15.35261084 2.5393715 -14.10551666 2 -11 2 C-11 1.34 -11 0.68 -11 0 C-3.57142857 -1.28571429 -3.57142857 -1.28571429 0 0 Z " fill="#C7545F" transform="translate(322,100)"/>
<path d="M0 0 C1 3 1 3 0.22265625 5.04296875 C-0.16019531 5.75066406 -0.54304688 6.45835937 -0.9375 7.1875 C-1.31777344 7.90292969 -1.69804687 8.61835938 -2.08984375 9.35546875 C-2.54037109 10.16951172 -2.54037109 10.16951172 -3 11 C-3.99 10.67 -4.98 10.34 -6 10 C-5.35389319 6.51102321 -3.98128683 3.93230451 -2 1 C-1.34 0.67 -0.68 0.34 0 0 Z " fill="#D1313E" transform="translate(367,297)"/>
<path d="M0 0 C1.32 0.33 2.64 0.66 4 1 C4 2.65 4 4.3 4 6 C4.61875 6.103125 5.2375 6.20625 5.875 6.3125 C8 7 8 7 10 10 C9.625 12.1875 9.625 12.1875 9 14 C0 3.89320388 0 3.89320388 0 0 Z " fill="#BC6E73" transform="translate(77,243)"/>
<path d="M0 0 C0.66 0.33 1.32 0.66 2 1 C-0.89417254 5.2945786 -2.66154295 7.27006284 -7.8125 8.375 C-9.20465411 8.60664718 -10.59983914 8.82307336 -12 9 C-8.63378119 5.21300384 -4.58358196 2.1727369 0 0 Z " fill="#CE5F67" transform="translate(116,109)"/>
<path d="M0 0 C5.86809507 0.52393706 10.54873741 1.76108858 16 4 C13 6 13 6 10.37109375 5.64453125 C9.40300781 5.36996094 8.43492187 5.09539062 7.4375 4.8125 C6.46683594 4.55082031 5.49617188 4.28914063 4.49609375 4.01953125 C2 3 2 3 0 0 Z " fill="#D58489" transform="translate(357,100)"/>
<path d="M0 0 C0.99 0 1.98 0 3 0 C3.99 3.3 4.98 6.6 6 10 C0.33846154 7.66153846 0.33846154 7.66153846 -1.375 4.3125 C-1.58125 3.549375 -1.7875 2.78625 -2 2 C-1.34 1.34 -0.68 0.68 0 0 Z " fill="#83090B" transform="translate(203,366)"/>
<path d="M0 0 C3.66786393 1.50349377 5.68910393 3.63728792 8.25 6.625 C8.95640625 7.44226563 9.6628125 8.25953125 10.390625 9.1015625 C10.92171875 9.72804687 11.4528125 10.35453125 12 11 C11.67 11.66 11.34 12.32 11 13 C8.525 12.01 8.525 12.01 6 11 C6 9.68 6 8.36 6 7 C5.34 7 4.68 7 4 7 C2.50475822 4.7272325 1.21600285 2.4320057 0 0 Z " fill="#D56F7A" transform="translate(403,124)"/>
<path d="M0 0 C0.99 0 1.98 0 3 0 C2.34 1.32 1.68 2.64 1 4 C0.34 4 -0.32 4 -1 4 C-1.2475 4.639375 -1.495 5.27875 -1.75 5.9375 C-3 8 -3 8 -4.875 8.9375 C-7.76820282 9.0225942 -8.89167237 7.88243538 -11 6 C-10.67 5.34 -10.34 4.68 -10 4 C-9.34 4.66 -8.68 5.32 -8 6 C-5.93125966 6.6425235 -5.93125966 6.6425235 -4 7 C-4 5.68 -4 4.36 -4 3 C-2.68 3 -1.36 3 0 3 C0 2.01 0 1.02 0 0 Z " fill="#C37F85" transform="translate(256,411)"/>
<path d="M0 0 C3.32494886 2.98098864 5.42411818 5.79764848 7 10 C6.0703125 12.1875 6.0703125 12.1875 5 14 C4.15675328 12.421924 3.32576082 10.8372958 2.5 9.25 C2.0359375 8.36828125 1.571875 7.4865625 1.09375 6.578125 C0 4 0 4 0 0 Z " fill="#C85B63" transform="translate(420,144)"/>
<path d="M0 0 C0.66 0.33 1.32 0.66 2 1 C1.27683594 1.47179687 1.27683594 1.47179687 0.5390625 1.953125 C-3.43198224 4.49063941 -3.43198224 4.49063941 -6.0625 8.25 C-6.371875 8.8275 -6.68125 9.405 -7 10 C-10.125 10.75 -10.125 10.75 -13 11 C-9.57933564 5.94336573 -5.08997609 3.16492103 0 0 Z " fill="#DF8E97" transform="translate(290,109)"/>
<path d="M0 0 C1.32 0.66 2.64 1.32 4 2 C-2.67862176 5.01651083 -8.63927766 7.57534294 -16 8 C-15.67 7.01 -15.34 6.02 -15 5 C-14.67 5.33 -14.34 5.66 -14 6 C-12.22604492 5.57533503 -10.45589369 5.1347591 -8.6875 4.6875 C-7.70136719 4.44386719 -6.71523437 4.20023438 -5.69921875 3.94921875 C-2.99858988 2.99950411 -1.79043784 2.18152323 0 0 Z " fill="#8A070C" transform="translate(146,242)"/>
<path d="M0 0 C2 1.375 2 1.375 4 3 C4 3.66 4 4.32 4 5 C5.98 4.67 7.96 4.34 10 4 C9.67 5.32 9.34 6.64 9 8 C7.35 8.33 5.7 8.66 4 9 C4 8.34 4 7.68 4 7 C3.01 6.67 2.02 6.34 1 6 C0.67 4.02 0.34 2.04 0 0 Z " fill="#C53C48" transform="translate(245,141)"/>
<path d="M0 0 C0.66 0.33 1.32 0.66 2 1 C0.625 2.5 0.625 2.5 -1 4 C-1.66 4 -2.32 4 -3 4 C-3.061875 4.598125 -3.12375 5.19625 -3.1875 5.8125 C-4.32800995 8.88310372 -6.17812585 9.48582363 -9 11 C-9.66 11.66 -10.32 12.32 -11 13 C-10.44200992 9.17991405 -8.80143338 7.45237612 -6.0625 4.8125 C-4.99708984 3.77029297 -4.99708984 3.77029297 -3.91015625 2.70703125 C-2 1 -2 1 0 0 Z " fill="#E41F2D" transform="translate(281,119)"/>
<path d="M0 0 C0.66 0.33 1.32 0.66 2 1 C0.71937515 2.7074998 -0.61767557 4.37373596 -2 6 C-2.66 6 -3.32 6 -4 6 C-4 6.66 -4 7.32 -4 8 C-5.65 8.66 -7.3 9.32 -9 10 C-8.34 8.35 -7.68 6.7 -7 5 C-6.34 5 -5.68 5 -5 5 C-5 4.34 -5 3.68 -5 3 C-2.625 1.3125 -2.625 1.3125 0 0 Z " fill="#BE1924" transform="translate(304,361)"/>
<path d="M0 0 C-1.375 2 -1.375 2 -3 4 C-3.66 4 -4.32 4 -5 4 C-5.66 5.32 -6.32 6.64 -7 8 C-7.33 8 -7.66 8 -8 8 C-8 6.35 -8 4.7 -8 3 C-7.34 3 -6.68 3 -6 3 C-6 2.01 -6 1.02 -6 0 C-3 -1 -3 -1 0 0 Z " fill="#CC5C63" transform="translate(395,276)"/>
<path d="M0 0 C1.51400391 0.01740234 1.51400391 0.01740234 3.05859375 0.03515625 C4.07050781 0.04417969 5.08242188 0.05320312 6.125 0.0625 C7.29869141 0.07990234 7.29869141 0.07990234 8.49609375 0.09765625 C5.59081763 3.00293237 2.2851035 2.81029944 -1.62890625 3.22265625 C-2.38300781 3.30902344 -3.13710938 3.39539063 -3.9140625 3.484375 C-5.77647752 3.69654886 -7.64009556 3.89811388 -9.50390625 4.09765625 C-9.83390625 3.43765625 -10.16390625 2.77765625 -10.50390625 2.09765625 C-9.36953125 1.95328125 -8.23515625 1.80890625 -7.06640625 1.66015625 C-3.7864409 1.14226698 -3.04517779 0.11876668 0 0 Z " fill="#E12029" transform="translate(321.50390625,100.90234375)"/>
<path d="M0 0 C2.1875 0 2.1875 0 5 1 C6.96188534 3.50803179 8.49921743 6.19641043 10 9 C9.01 9 8.02 9 7 9 C6.7525 8.38125 6.505 7.7625 6.25 7.125 C4.77229238 4.61289704 3.56044823 4.23892656 1 3 C0.67 2.01 0.34 1.02 0 0 Z " fill="#C8808A" transform="translate(195,365)"/>
<path d="M0 0 C4.50884026 2.31883213 6.93906776 5.06451569 10 9 C9.67 9.66 9.34 10.32 9 11 C4.57128343 8.78564172 2.45699405 6.27698964 0 2 C0 1.34 0 0.68 0 0 Z " fill="#AD535E" transform="translate(187,355)"/>
<path d="M0 0 C0.66 0 1.32 0 2 0 C2 1.65 2 3.3 2 5 C1.34 5 0.68 5 0 5 C-0.28875 5.639375 -0.5775 6.27875 -0.875 6.9375 C-2 9 -2 9 -4 10 C-3.43697042 6.05879291 -2.3208055 3.2491277 0 0 Z " fill="#CA4F5B" transform="translate(370,295)"/>
<path d="M0 0 C6.27 0.33 12.54 0.66 19 1 C15 3 15 3 11 3 C10.21625 3.04125 9.4325 3.0825 8.625 3.125 C5.48403744 2.97543035 2.93459444 2.09194212 0 1 C0 0.67 0 0.34 0 0 Z " fill="#E33B45" transform="translate(138,100)"/>
<path d="M0 0 C2.0625 0.4375 2.0625 0.4375 4 1 C2.625 2.5 2.625 2.5 1 4 C0.34 4 -0.32 4 -1 4 C-1.268125 4.639375 -1.53625 5.27875 -1.8125 5.9375 C-3 8 -3 8 -6 9 C-5.67 7.68 -5.34 6.36 -5 5 C-4.01 5 -3.02 5 -2 5 C-1.855625 4.360625 -1.71125 3.72125 -1.5625 3.0625 C-1 1 -1 1 0 0 Z " fill="#C86977" transform="translate(321,346)"/>
<path d="M0 0 C3.63 1.98 7.26 3.96 11 6 C10.67 6.66 10.34 7.32 10 8 C10 8.33 10 8.66 10 9 C9.01 9 8.02 9 7 9 C6.7525 8.38125 6.505 7.7625 6.25 7.125 C4.77229238 4.61289704 3.56044823 4.23892656 1 3 C0.67 2.01 0.34 1.02 0 0 Z " fill="#C98085" transform="translate(165,335)"/>
<path d="M0 0 C3 1 3 1 4.6875 4.1875 C6.01535157 7.5347925 6.26451861 10.38491227 6 14 C5.67 14 5.34 14 5 14 C4.89042969 13.43410156 4.78085937 12.86820313 4.66796875 12.28515625 C4.50941406 11.55167969 4.35085938 10.81820312 4.1875 10.0625 C4.03667969 9.33160156 3.88585937 8.60070312 3.73046875 7.84765625 C3.48941406 7.23792969 3.24835938 6.62820312 3 6 C2.01 5.67 1.02 5.34 0 5 C-0.75 3 -0.75 3 -1 1 C-0.67 0.67 -0.34 0.34 0 0 Z " fill="#E01E2C" transform="translate(417,143)"/>
<path d="M0 0 C0.66 0 1.32 0 2 0 C1.75 1.875 1.75 1.875 1 4 C-0.32467746 4.6837045 -1.65863633 5.34964186 -3 6 C-4.26804566 8.0335948 -4.26804566 8.0335948 -5 10 C-5.33 8.68 -5.66 7.36 -6 6 C-5.01 5.67 -4.02 5.34 -3 5 C-3 4.34 -3 3.68 -3 3 C-2.34 3 -1.68 3 -1 3 C-0.67 2.01 -0.34 1.02 0 0 Z " fill="#C1646A" transform="translate(303,364)"/>
<path d="M0 0 C0.99 0 1.98 0 3 0 C3 1.32 3 2.64 3 4 C2.34 4 1.68 4 1 4 C0.34 5.32 -0.32 6.64 -1 8 C-1.66 7.34 -2.32 6.68 -3 6 C-2.63318342 3.06546739 -2.13562754 2.13562754 0 0 Z " fill="#BC4951" transform="translate(294,371)"/>
<path d="M0 0 C1.14926266 0.95421808 2.29430541 1.91352045 3.4375 2.875 C4.07558594 3.40867188 4.71367187 3.94234375 5.37109375 4.4921875 C7 6 7 6 8 8 C5.2980567 7.63487253 3.41609148 7.30130763 1.1875 5.6875 C0 4 0 4 0 0 Z " fill="#BE5E66" transform="translate(231,127)"/>
<path d="M0 0 C3.36295835 1.44126786 5.62927102 3.20592655 8 6 C8 6.99 8 7.98 8 9 C3.33845958 7.50164772 2.13389249 4.11536409 0 0 Z " fill="#B25E67" transform="translate(212,381)"/>
<path d="M0 0 C1.98 0 3.96 0 6 0 C6 0.99 6 1.98 6 3 C6.66 3.66 7.32 4.32 8 5 C7.67 5.99 7.34 6.98 7 8 C5.8274869 7.04882866 4.66212985 6.08882991 3.5 5.125 C2.8503125 4.59132813 2.200625 4.05765625 1.53125 3.5078125 C1.0259375 3.01023437 0.520625 2.51265625 0 2 C0 1.34 0 0.68 0 0 Z " fill="#88080D" transform="translate(146,313)"/>
<path d="M0 0 C0.75 1.5625 0.75 1.5625 1 4 C-0.13084437 6.50286409 -1.52139516 8.67007722 -3 11 C-3.33 11 -3.66 11 -4 11 C-3.125 4.25 -3.125 4.25 -2 2 C-1.34 2 -0.68 2 0 2 C0 1.34 0 0.68 0 0 Z " fill="#D57E86" transform="translate(429,228)"/>
<path d="M0 0 C6.30267439 0.36776168 11.33251843 1.16625922 17 4 C13.17591794 5.27469402 11.76261161 4.25420387 8 3 C4.74955291 2.83201531 4.74955291 2.83201531 2 3 C2 2.34 2 1.68 2 1 C1.34 0.67 0.68 0.34 0 0 Z " fill="#E4A0A3" transform="translate(180,99)"/>
<path d="M0 0 C4.43090471 1.20842856 6.98112756 2.51668565 10 6 C9.01 6.495 9.01 6.495 8 7 C8 6.34 8 5.68 8 5 C6.8553125 5.1546875 6.8553125 5.1546875 5.6875 5.3125 C4.800625 5.209375 3.91375 5.10625 3 5 C1.1875 2.5 1.1875 2.5 0 0 Z " fill="#D17F87" transform="translate(206,108)"/>
<path d="M0 0 C0 1.65 0 3.3 0 5 C-0.33 4.34 -0.66 3.68 -1 3 C-1.66 3 -2.32 3 -3 3 C-3 3.66 -3 4.32 -3 5 C-3.66 5 -4.32 5 -5 5 C-5 5.99 -5 6.98 -5 8 C-5.66 8 -6.32 8 -7 8 C-6.44414399 4.1090079 -4.34122117 0 0 0 Z " fill="#D12B37" transform="translate(387,280)"/>
<path d="M0 0 C1.1875 1.6875 1.1875 1.6875 2 4 C0.75 6.75 0.75 6.75 -1 9 C-1.66 9 -2.32 9 -3 9 C-3.36923077 3.46153846 -3.36923077 3.46153846 -1.5 1.125 C-1.005 0.75375 -0.51 0.3825 0 0 Z " fill="#E01D26" transform="translate(78,151)"/>
<path d="M0 0 C2.97 0.495 2.97 0.495 6 1 C6 2.65 6 4.3 6 6 C3.5625 5.25 3.5625 5.25 1 4 C0.1875 1.875 0.1875 1.875 0 0 Z " fill="#BC2434" transform="translate(211,113)"/>
<path d="M0 0 C0.66 0.33 1.32 0.66 2 1 C0.52307692 5.67692308 0.52307692 5.67692308 -2.125 7.3125 C-3.053125 7.6528125 -3.053125 7.6528125 -4 8 C-3.40072174 4.64404172 -2.15377564 2.62198774 0 0 Z " fill="#E61D2B" transform="translate(406,256)"/>
<path d="M0 0 C0.99 0.33 1.98 0.66 3 1 C2.5206753 5.31392226 1.2542015 7.16569547 -2 10 C-2 8.68 -2 7.36 -2 6 C-1.34 6 -0.68 6 0 6 C0 4.02 0 2.04 0 0 Z " fill="#D26F74" transform="translate(422,238)"/>
<path d="M0 0 C2 2 2 2 2.125 5.625 C2.08375 6.73875 2.0425 7.8525 2 9 C1.01 9 0.02 9 -1 9 C-1 5.95799954 -0.44513658 3.00467194 0 0 Z " fill="#EC1A28" transform="translate(427,164)"/>
<path d="M0 0 C0.33 0 0.66 0 1 0 C1.3125 2.75 1.3125 2.75 1 6 C-1.5 8.375 -1.5 8.375 -4 10 C-3.4359146 6.05140217 -2.2568294 3.29120954 0 0 Z " fill="#DB838A" transform="translate(74,152)"/>
<path d="M0 0 C1.32 0.33 2.64 0.66 4 1 C3.01 1.33 2.02 1.66 1 2 C0.30062468 3.31647119 -0.36729133 4.65022151 -1 6 C-1.99 6.495 -1.99 6.495 -3 7 C-3 5.35 -3 3.7 -3 2 C-2.01 2 -1.02 2 0 2 C0 1.34 0 0.68 0 0 Z " fill="#C3757D" transform="translate(279,388)"/>
<path d="M0 0 C0.66 0 1.32 0 2 0 C0.51461988 4.7037037 0.51461988 4.7037037 -2.0625 6.1875 C-2.701875 6.455625 -3.34125 6.72375 -4 7 C-4.33 7.66 -4.66 8.32 -5 9 C-5 7.68 -5 6.36 -5 5 C-4.01 5 -3.02 5 -2 5 C-2 4.01 -2 3.02 -2 2 C-1.34 2 -0.68 2 0 2 C0 1.34 0 0.68 0 0 Z " fill="#C7626E" transform="translate(384,283)"/>
<path d="M0 0 C0.99 0.66 1.98 1.32 3 2 C-0.465 4.97 -0.465 4.97 -4 8 C-4 4.09161134 -2.49432124 2.88405893 0 0 Z " fill="#D16B79" transform="translate(85,135)"/>
<path d="M0 0 C0.66 0.99 1.32 1.98 2 3 C0.88625 3.6496875 0.88625 3.6496875 -0.25 4.3125 C-2.61833926 5.76579909 -4.80924065 7.29607606 -7 9 C-7 6 -7 6 -5.46875 4.39453125 C-4.49421875 3.61142578 -4.49421875 3.61142578 -3.5 2.8125 C-2.8503125 2.28269531 -2.200625 1.75289062 -1.53125 1.20703125 C-1.0259375 0.80871094 -0.520625 0.41039062 0 0 Z " fill="#EC1B27" transform="translate(269,132)"/>
<path d="M0 0 C2.31 0.66 4.62 1.32 7 2 C6.01 3.485 6.01 3.485 5 5 C3.35 4.67 1.7 4.34 0 4 C0 2.68 0 1.36 0 0 Z " fill="#CE1A21" transform="translate(195,106)"/>
<path d="M0 0 C-0.99 0.33 -1.98 0.66 -3 1 C-3 1.66 -3 2.32 -3 3 C-5.64 3.33 -8.28 3.66 -11 4 C-8.32997607 0.73663741 -4.08378642 -2.04189321 0 0 Z " fill="#DD8C94" transform="translate(129,105)"/>
<path d="M0 0 C1.93719378 -0.05406122 3.87481921 -0.09282025 5.8125 -0.125 C6.89144531 -0.14820312 7.97039062 -0.17140625 9.08203125 -0.1953125 C12 0 12 0 15 2 C11.46905698 3.20220203 8.87101018 2.79532349 5.25 2.0625 C4.26515625 1.86785156 3.2803125 1.67320313 2.265625 1.47265625 C1.51796875 1.31667969 0.7703125 1.16070312 0 1 C0 0.67 0 0.34 0 0 Z " fill="#E31E2C" transform="translate(342,101)"/>
<path d="M0 0 C1.875 0.125 1.875 0.125 4 1 C5.125 4 5.125 4 6 7 C6.66 7.33 7.32 7.66 8 8 C6.25 7.875 6.25 7.875 4 7 C0 1.66666667 0 1.66666667 0 0 Z " fill="#901722" transform="translate(218,385)"/>
<path d="M0 0 C-0.33 1.32 -0.66 2.64 -1 4 C-1.66 4 -2.32 4 -3 4 C-3.66 5.32 -4.32 6.64 -5 8 C-5.75 6.25 -5.75 6.25 -6 4 C-2.77777778 0 -2.77777778 0 0 0 Z " fill="#C7666F" transform="translate(353,316)"/>
<path d="M0 0 C1.32 0 2.64 0 4 0 C4.33 2.31 4.66 4.62 5 7 C3.02 5.35 1.04 3.7 -1 2 C-0.67 1.34 -0.34 0.68 0 0 Z " fill="#8B0811" transform="translate(235,400)"/>
<path d="M0 0 C2.97 0.495 2.97 0.495 6 1 C6.33 2.32 6.66 3.64 7 5 C6.01 5 5.02 5 4 5 C1.8125 2.5 1.8125 2.5 0 0 Z " fill="#8B0810" transform="translate(185,352)"/>
<path d="M0 0 C0.33 0 0.66 0 1 0 C1.125 6.625 1.125 6.625 0 10 C-0.66 9.67 -1.32 9.34 -2 9 C-2.125 5.625 -2.125 5.625 -2 2 C-1.34 1.34 -0.68 0.68 0 0 Z " fill="#EB1B24" transform="translate(428,217)"/>
<path d="M0 0 C0.99 0.66 1.98 1.32 3 2 C2.01 2.66 1.02 3.32 0 4 C0 4.99 0 5.98 0 7 C-0.66 7 -1.32 7 -2 7 C-2.6875 5.1875 -2.6875 5.1875 -3 3 C-1.5625 1.25 -1.5625 1.25 0 0 Z " fill="#B3151F" transform="translate(287,376)"/>
<path d="M0 0 C0.99 0.33 1.98 0.66 3 1 C2.67 1.99 2.34 2.98 2 4 C0.35 4.33 -1.3 4.66 -3 5 C-2.67 3.68 -2.34 2.36 -2 1 C-1.34 1.33 -0.68 1.66 0 2 C0 1.34 0 0.68 0 0 Z " fill="#C32632" transform="translate(323,342)"/>
<path d="M0 0 C0.99 0.33 1.98 0.66 3 1 C3 2.98 3 4.96 3 7 C2.01 6.67 1.02 6.34 0 6 C-0.75 4.0625 -0.75 4.0625 -1 2 C-0.67 1.34 -0.34 0.68 0 0 Z " fill="#880A0F" transform="translate(157,320)"/>
<path d="M0 0 C-0.33 0.99 -0.66 1.98 -1 3 C-1.99 3 -2.98 3 -4 3 C-4 3.99 -4 4.98 -4 6 C-4.99 6.33 -5.98 6.66 -7 7 C-6.67 5.02 -6.34 3.04 -6 1 C-3.92446352 0.4465236 -2.15634036 0 0 0 Z " fill="#E21F27" transform="translate(393,273)"/>
<path d="M0 0 C2.5 1.8125 2.5 1.8125 5 4 C5 4.99 5 5.98 5 7 C3.68 6.67 2.36 6.34 1 6 C0.67 4.02 0.34 2.04 0 0 Z " fill="#CB676C" transform="translate(415,137)"/>
<path d="M0 0 C3.36591866 1.44253657 5.51047079 3.33264727 8 6 C5.69 5.34 3.38 4.68 1 4 C0.67 2.68 0.34 1.36 0 0 Z " fill="#C77B7E" transform="translate(217,115)"/>
<path d="M0 0 C2 1 2 1 2 1 Z M-8 1 C-5.36 1 -2.72 1 0 1 C0 1.66 0 2.32 0 3 C-5.75 4.125 -5.75 4.125 -8 3 C-8 2.34 -8 1.68 -8 1 Z " fill="#ED1A25" transform="translate(116,116)"/>
<path d="M0 0 C0.66 0.33 1.32 0.66 2 1 C0.25 3.0625 0.25 3.0625 -2 5 C-4.25 4.75 -4.25 4.75 -6 4 C-4.02 2.68 -2.04 1.36 0 0 Z " fill="#D8828C" transform="translate(116,109)"/>
<path d="M0 0 C0.99 0.33 1.98 0.66 3 1 C2.67 2.32 2.34 3.64 2 5 C1.34 5 0.68 5 0 5 C-0.33 5.66 -0.66 6.32 -1 7 C-0.67 4.69 -0.34 2.38 0 0 Z " fill="#B0515C" transform="translate(260,405)"/>
<path d="M0 0 C1.98 1.65 3.96 3.3 6 5 C5.67 5.66 5.34 6.32 5 7 C2.5 5.75 2.5 5.75 0 4 C0 2.68 0 1.36 0 0 Z " fill="#8D131C" transform="translate(203,369)"/>
<path d="M0 0 C-1.375 2 -1.375 2 -3 4 C-3.66 4 -4.32 4 -5 4 C-5.33 2.68 -5.66 1.36 -6 0 C-3 -1 -3 -1 0 0 Z " fill="#C85A69" transform="translate(315,356)"/>
<path d="M0 0 C2.475 0.495 2.475 0.495 5 1 C5 2.65 5 4.3 5 6 C4.01 5.67 3.02 5.34 2 5 C0.8125 2.4375 0.8125 2.4375 0 0 Z " fill="#880A12" transform="translate(138,304)"/>
<path d="M0 0 C0.33 1.32 0.66 2.64 1 4 C0.34 4 -0.32 4 -1 4 C-1 4.66 -1 5.32 -1 6 C-2.32 5.67 -3.64 5.34 -5 5 C-3.35 3.35 -1.7 1.7 0 0 Z " fill="#BF1F2B" transform="translate(258,139)"/>
<path d="M0 0 C0 0.66 0 1.32 0 2 C-3.79303725 0.99806563 -6.71536341 0.18975773 -10 -2 C-5.82412255 -3.39195915 -3.86525224 -1.82323219 0 0 Z " fill="#B21A27" transform="translate(231,127)"/>
<path d="M0 0 C0.99 0 1.98 0 3 0 C3.268125 0.61875 3.53625 1.2375 3.8125 1.875 C4.95556848 4.2995233 4.95556848 4.2995233 8 6 C6.02 6 4.04 6 2 6 C2 4.35 2 2.7 2 1 C1.34 0.67 0.68 0.34 0 0 Z " fill="#C6151F" transform="translate(208,113)"/>
</svg>
